<?xml version="1.0" encoding="UTF-8" standalone="no"?>
<!-- Created with Inkscape (http://www.inkscape.org/) -->

<svg
   xmlns:dc="http://purl.org/dc/elements/1.1/"
   xmlns:cc="http://creativecommons.org/ns#"
   xmlns:rdf="http://www.w3.org/1999/02/22-rdf-syntax-ns#"
   xmlns:svg="http://www.w3.org/2000/svg"
   xmlns="http://www.w3.org/2000/svg"
   xmlns:sodipodi="http://sodipodi.sourceforge.net/DTD/sodipodi-0.dtd"
   xmlns:inkscape="http://www.inkscape.org/namespaces/inkscape"
   id="svg2"
   version="1.1"
   inkscape:version="0.91 r13725"
   xml:space="preserve"
   width="588.125"
   height="432.51251"
   viewBox="0 0 588.125 432.51252"
   sodipodi:docname="TilemapBelgium.svg"><title
     id="title3564">Tilemap Belgium</title><metadata
     id="metadata8"><rdf:RDF><cc:Work
         rdf:about=""><dc:format>image/svg+xml</dc:format><dc:type
           rdf:resource="http://purl.org/dc/dcmitype/StillImage" /><dc:title>Tilemap Belgium</dc:title><dc:date>2016/01/08</dc:date><dc:creator><cc:Agent><dc:title>Michel Stuyts</dc:title></cc:Agent></dc:creator><dc:rights><cc:Agent><dc:title>Open Source</dc:title></cc:Agent></dc:rights><dc:language>Dutch/French</dc:language></cc:Work></rdf:RDF></metadata><defs
     id="defs6"><clipPath
       clipPathUnits="userSpaceOnUse"
       id="clipPath16"><path
         d="m 51.48,440.33 469.42,0 0,346.37 -469.42,0 0,-346.37 z"
         id="path18"
         inkscape:connector-curvature="0"
         style="clip-rule:evenodd" /></clipPath><clipPath
       clipPathUnits="userSpaceOnUse"
       id="clipPath26"><path
         d="m 51.48,709.18 469.42,0 0,59.52 -469.42,0 0,-59.52 z"
         id="path28"
         inkscape:connector-curvature="0"
         style="clip-rule:evenodd" /></clipPath><clipPath
       clipPathUnits="userSpaceOnUse"
       id="clipPath38"><path
         d="m 51.48,637.87 93.984,0 0,59.544 -93.984,0 0,-59.544 z"
         id="path40"
         inkscape:connector-curvature="0"
         style="clip-rule:evenodd" /></clipPath><clipPath
       clipPathUnits="userSpaceOnUse"
       id="clipPath54"><path
         d="m 157.94,637.87 93.984,0 0,59.544 -93.984,0 0,-59.544 z"
         id="path56"
         inkscape:connector-curvature="0"
         style="clip-rule:evenodd" /></clipPath><clipPath
       clipPathUnits="userSpaceOnUse"
       id="clipPath70"><path
         d="m 264.41,637.87 93.984,0 0,59.544 -93.984,0 0,-59.544 z"
         id="path72"
         inkscape:connector-curvature="0"
         style="clip-rule:evenodd" /></clipPath><clipPath
       clipPathUnits="userSpaceOnUse"
       id="clipPath86"><path
         d="m 51.48,637.87 469.42,0 0,59.544 -469.42,0 0,-59.544 z"
         id="path88"
         inkscape:connector-curvature="0"
         style="clip-rule:evenodd" /></clipPath><clipPath
       clipPathUnits="userSpaceOnUse"
       id="clipPath98"><path
         d="m 51.48,566.59 469.42,0 0,59.52 -469.42,0 0,-59.52 z"
         id="path100"
         inkscape:connector-curvature="0"
         style="clip-rule:evenodd" /></clipPath><clipPath
       clipPathUnits="userSpaceOnUse"
       id="clipPath110"><path
         d="m 264.41,566.59 93.984,0 0,59.52 -93.984,0 0,-59.52 z"
         id="path112"
         inkscape:connector-curvature="0"
         style="clip-rule:evenodd" /></clipPath><clipPath
       clipPathUnits="userSpaceOnUse"
       id="clipPath126"><path
         d="m 51.48,566.59 469.42,0 0,59.52 -469.42,0 0,-59.52 z"
         id="path128"
         inkscape:connector-curvature="0"
         style="clip-rule:evenodd" /></clipPath><clipPath
       clipPathUnits="userSpaceOnUse"
       id="clipPath138"><path
         d="m 51.48,495.29 469.42,0 0,59.544 -469.42,0 0,-59.544 z"
         id="path140"
         inkscape:connector-curvature="0"
         style="clip-rule:evenodd" /></clipPath><clipPath
       clipPathUnits="userSpaceOnUse"
       id="clipPath154"><path
         d="m 49.56,438.29 473.38,0 0,350.33 -473.38,0 0,-350.33 z"
         id="path156"
         inkscape:connector-curvature="0"
         style="clip-rule:evenodd" /></clipPath></defs><sodipodi:namedview
     pagecolor="#ffffff"
     bordercolor="#666666"
     borderopacity="1"
     objecttolerance="10"
     gridtolerance="10"
     guidetolerance="10"
     inkscape:pageopacity="0"
     inkscape:pageshadow="2"
     inkscape:window-width="1680"
     inkscape:window-height="988"
     id="namedview4"
     showgrid="false"
     inkscape:zoom="0.63445377"
     inkscape:cx="309.45"
     inkscape:cy="-29.270539"
     inkscape:window-x="-8"
     inkscape:window-y="-8"
     inkscape:window-maximized="1"
     inkscape:current-layer="g10"
     fit-margin-top="0"
     fit-margin-left="0"
     fit-margin-right="0"
     fit-margin-bottom="0" /><g
     id="g10"
     inkscape:groupmode="layer"
     inkscape:label="TilemapBelgium"
     transform="matrix(1.25,0,0,-1.25,-62.55,983.375)"><g
       id="g12"><g
         id="g14"
         clip-path="url(#clipPath16)"><path
           d="m 51,440.69 469.54,0 0,346.49 -469.54,0 0,-346.49 z"
           style="fill:#ffffff;fill-opacity:1;fill-rule:evenodd;stroke:none"
           id="path20"
           inkscape:connector-curvature="0" /></g></g><g
       id="g22"><g
         id="g24"
         clip-path="url(#clipPath26)"><text
           transform="matrix(1,0,0,-1,275.33,733.78)"
           style="font-variant:normal;font-weight:bold;font-size:14.03999996px;font-family:Helvetica;-inkscape-font-specification:Helvetica-Bold;writing-mode:lr-tb;fill:#000000;fill-opacity:1;fill-rule:nonzero;stroke:none"
           id="text30"><tspan
             x="0 9.7156801 18.237961 22.91328 34.187401 41.993641 47.497318 56.0196 63.82584"
             y="0"
             sodipodi:role="line"
             id="tspan32">Antwerpen</tspan></text>
</g></g><g
       id="g34"><g
         id="g36"
         clip-path="url(#clipPath38)"><text
           transform="matrix(1,0,0,-1,79.44,671.26)"
           style="font-variant:normal;font-weight:bold;font-size:14.03999996px;font-family:Helvetica;-inkscape-font-specification:Helvetica-Bold;writing-mode:lr-tb;fill:#000000;fill-opacity:1;fill-rule:nonzero;stroke:none"
           id="text42"><tspan
             x="0 13.1976 21.003839 28.81008 33.485401"
             y="0"
             sodipodi:role="line"
             id="tspan44">West-</tspan></text>
<text
           transform="matrix(1,0,0,-1,60.72,653.71)"
           style="font-variant:normal;font-weight:bold;font-size:14.03999996px;font-family:Helvetica;-inkscape-font-specification:Helvetica-Bold;writing-mode:lr-tb;fill:#000000;fill-opacity:1;fill-rule:nonzero;stroke:none"
           id="text46"><tspan
             x="0 9.3646803 13.30992 21.116159 28.9224 37.430641 45.952919 53.759159 59.26284 67.069077"
             y="0"
             sodipodi:role="line"
             id="tspan48">Vlaanderen</tspan></text>
</g></g><g
       id="g50"><g
         id="g52"
         clip-path="url(#clipPath54)"><text
           transform="matrix(1,0,0,-1,186.74,671.26)"
           style="font-variant:normal;font-weight:bold;font-size:14.03999996px;font-family:Helvetica;-inkscape-font-specification:Helvetica-Bold;writing-mode:lr-tb;fill:#000000;fill-opacity:1;fill-rule:nonzero;stroke:none"
           id="text58"><tspan
             x="0 10.92312 19.4454 27.25164 31.92696"
             y="0"
             sodipodi:role="line"
             id="tspan60">Oost-</tspan></text>
<text
           transform="matrix(1,0,0,-1,167.18,653.71)"
           style="font-variant:normal;font-weight:bold;font-size:14.03999996px;font-family:Helvetica;-inkscape-font-specification:Helvetica-Bold;writing-mode:lr-tb;fill:#000000;fill-opacity:1;fill-rule:nonzero;stroke:none"
           id="text62"><tspan
             x="0 9.3646803 13.30992 21.116159 28.9224 37.430641 45.952919 53.759159 59.26284 67.069077"
             y="0"
             sodipodi:role="line"
             id="tspan64">Vlaanderen</tspan></text>
</g></g><g
       id="g66"><g
         id="g68"
         clip-path="url(#clipPath70)"><text
           transform="matrix(1,0,0,-1,284.57,671.26)"
           style="font-variant:normal;font-weight:bold;font-size:14.03999996px;font-family:Helvetica;-inkscape-font-specification:Helvetica-Bold;writing-mode:lr-tb;fill:#000000;fill-opacity:1;fill-rule:nonzero;stroke:none"
           id="text74"><tspan
             x="0 9.3646803 13.30992 21.116159 28.9224 41.403961 49.210201"
             y="0"
             sodipodi:role="line"
             id="tspan76">Vlaams-</tspan></text>
<text
           transform="matrix(1,0,0,-1,285.05,653.71)"
           style="font-variant:normal;font-weight:bold;font-size:14.03999996px;font-family:Helvetica;-inkscape-font-specification:Helvetica-Bold;writing-mode:lr-tb;fill:#000000;fill-opacity:1;fill-rule:nonzero;stroke:none"
           id="text78"><tspan
             x="0 10.08072 15.5844 23.39064 31.89888 39.70512 48.21336"
             y="0"
             sodipodi:role="line"
             id="tspan80">Brabant</tspan></text>
</g></g><g
       id="g82"><g
         id="g84"
         clip-path="url(#clipPath86)"><text
           transform="matrix(1,0,0,-1,389.95,662.47)"
           style="font-variant:normal;font-weight:bold;font-size:14.03999996px;font-family:Helvetica;-inkscape-font-specification:Helvetica-Bold;writing-mode:lr-tb;fill:#000000;fill-opacity:1;fill-rule:nonzero;stroke:none"
           id="text90"><tspan
             x="0 8.5222797 12.46752 24.94908 33.471359 41.993641 47.497318"
             y="0"
             sodipodi:role="line"
             id="tspan92">Limburg</tspan></text>
</g></g><g
       id="g94"><g
         id="g96"
         clip-path="url(#clipPath98)"><text
           transform="matrix(1,0,0,-1,179.3,591.19)"
           style="font-variant:normal;font-weight:bold;font-size:14.03999996px;font-family:Helvetica;-inkscape-font-specification:Helvetica-Bold;writing-mode:lr-tb;fill:#000000;fill-opacity:1;fill-rule:nonzero;stroke:none"
           id="text102"><tspan
             x="0 10.08072 17.886959 21.832199 30.354481 38.160721 46.668961"
             y="0"
             sodipodi:role="line"
             id="tspan104">Hainaut</tspan></text>
</g></g><g
       id="g106"><g
         id="g108"
         clip-path="url(#clipPath110)"><text
           transform="matrix(1,0,0,-1,285.05,599.95)"
           style="font-variant:normal;font-weight:bold;font-size:14.03999996px;font-family:Helvetica;-inkscape-font-specification:Helvetica-Bold;writing-mode:lr-tb;fill:#000000;fill-opacity:1;fill-rule:nonzero;stroke:none"
           id="text114"><tspan
             x="0 10.08072 15.5844 23.39064 31.89888 39.70512 48.21336 52.88868"
             y="0"
             sodipodi:role="line"
             id="tspan116">Brabant </tspan></text>
<text
           transform="matrix(1,0,0,-1,289.49,582.43)"
           style="font-variant:normal;font-weight:bold;font-size:14.03999996px;font-family:Helvetica;-inkscape-font-specification:Helvetica-Bold;writing-mode:lr-tb;fill:#000000;fill-opacity:1;fill-rule:nonzero;stroke:none"
           id="text118"><tspan
             x="0 11.26008 19.06632 23.01156 26.9568 35.47908"
             y="0"
             sodipodi:role="line"
             id="tspan120">wallon</tspan></text>
</g></g><g
       id="g122"><g
         id="g124"
         clip-path="url(#clipPath126)"><text
           transform="matrix(1,0,0,-1,399.67,591.19)"
           style="font-variant:normal;font-weight:bold;font-size:14.03999996px;font-family:Helvetica;-inkscape-font-specification:Helvetica-Bold;writing-mode:lr-tb;fill:#000000;fill-opacity:1;fill-rule:nonzero;stroke:none"
           id="text130"><tspan
             x="0 8.5222797 12.46752 20.27376 28.782"
             y="0"
             sodipodi:role="line"
             id="tspan132">Liège</tspan></text>
</g></g><g
       id="g134"><g
         id="g136"
         clip-path="url(#clipPath138)"><text
           transform="matrix(1,0,0,-1,289.25,519.91)"
           style="font-variant:normal;font-weight:bold;font-size:14.03999996px;font-family:Helvetica;-inkscape-font-specification:Helvetica-Bold;writing-mode:lr-tb;fill:#000000;fill-opacity:1;fill-rule:nonzero;stroke:none"
           id="text142"><tspan
             x="0 10.08072 17.886959 30.368521 38.876759"
             y="0"
             sodipodi:role="line"
             id="tspan144">Namur</tspan></text>
<text
           transform="matrix(1,0,0,-1,375.55,519.91)"
           style="font-variant:normal;font-weight:bold;font-size:14.03999996px;font-family:Helvetica;-inkscape-font-specification:Helvetica-Bold;writing-mode:lr-tb;fill:#000000;fill-opacity:1;fill-rule:nonzero;stroke:none"
           id="text146"><tspan
             x="0 8.5222797 17.044559 24.8508 32.65704 45.138599 53.646839 62.169121 70.691399 76.195084"
             y="0"
             sodipodi:role="line"
             id="tspan148">Luxembourg</tspan></text>
</g></g><g
       id="g150"><g
         id="g152"
         clip-path="url(#clipPath154)"><path
           d="m 51.96,696.94 94.944,0 0,1.92 -94.944,0 0,-1.92 z"
           style="fill:#000000;fill-opacity:1;fill-rule:evenodd;stroke:none"
           id="path158"
           inkscape:connector-curvature="0" /><path
           d="m 158.42,696.94 94.944,0 0,1.92 -94.944,0 0,-1.92 z"
           style="fill:#000000;fill-opacity:1;fill-rule:evenodd;stroke:none"
           id="path160"
           inkscape:connector-curvature="0" /><path
           d="m 262.97,707.74 1.92,0 0,62.4 -1.92,0 0,-62.4 z"
           style="fill:#000000;fill-opacity:1;fill-rule:evenodd;stroke:none"
           id="path162"
           inkscape:connector-curvature="0" /><path
           d="m 357.91,707.74 1.92,0 0,60.48 -1.92,0 0,-60.48 z"
           style="fill:#000000;fill-opacity:1;fill-rule:evenodd;stroke:none"
           id="path164"
           inkscape:connector-curvature="0" /><path
           d="m 264.89,696.94 94.944,0 0,1.92 -94.944,0 0,-1.92 z"
           style="fill:#000000;fill-opacity:1;fill-rule:evenodd;stroke:none"
           id="path166"
           inkscape:connector-curvature="0" /><path
           d="m 51.96,636.43 94.944,0 0,1.92 -94.944,0 0,-1.92 z"
           style="fill:#000000;fill-opacity:1;fill-rule:evenodd;stroke:none"
           id="path168"
           inkscape:connector-curvature="0" /><path
           d="m 158.42,636.43 94.944,0 0,1.92 -94.944,0 0,-1.92 z"
           style="fill:#000000;fill-opacity:1;fill-rule:evenodd;stroke:none"
           id="path170"
           inkscape:connector-curvature="0" /><path
           d="m 264.89,636.43 94.944,0 0,1.92 -94.944,0 0,-1.92 z"
           style="fill:#000000;fill-opacity:1;fill-rule:evenodd;stroke:none"
           id="path172"
           inkscape:connector-curvature="0" /><path
           d="m 156.5,636.43 1.92,0 0,62.424 -1.92,0 0,-62.424 z"
           style="fill:#000000;fill-opacity:1;fill-rule:evenodd;stroke:none"
           id="path174"
           inkscape:connector-curvature="0" /><path
           d="m 251.45,636.43 1.92,0 0,60.504 -1.92,0 0,-60.504 z"
           style="fill:#000000;fill-opacity:1;fill-rule:evenodd;stroke:none"
           id="path176"
           inkscape:connector-curvature="0" /><path
           d="m 158.42,625.63 94.944,0 0,1.92 -94.944,0 0,-1.92 z"
           style="fill:#000000;fill-opacity:1;fill-rule:evenodd;stroke:none"
           id="path178"
           inkscape:connector-curvature="0" /><path
           d="m 262.97,636.43 1.92,0 0,62.424 -1.92,0 0,-62.424 z"
           style="fill:#000000;fill-opacity:1;fill-rule:evenodd;stroke:none"
           id="path180"
           inkscape:connector-curvature="0" /><path
           d="m 357.91,636.43 1.92,0 0,60.504 -1.92,0 0,-60.504 z"
           style="fill:#000000;fill-opacity:1;fill-rule:evenodd;stroke:none"
           id="path182"
           inkscape:connector-curvature="0" /><path
           d="m 264.89,625.63 94.944,0 0,1.92 -94.944,0 0,-1.92 z"
           style="fill:#000000;fill-opacity:1;fill-rule:evenodd;stroke:none"
           id="path184"
           inkscape:connector-curvature="0" /><path
           d="m 369.43,636.43 1.92,0 0,62.424 -1.92,0 0,-62.424 z"
           style="fill:#000000;fill-opacity:1;fill-rule:evenodd;stroke:none"
           id="path186"
           inkscape:connector-curvature="0" /><path
           d="m 464.38,636.43 1.92,0 0,60.504 -1.92,0 0,-60.504 z"
           style="fill:#000000;fill-opacity:1;fill-rule:evenodd;stroke:none"
           id="path188"
           inkscape:connector-curvature="0" /><path
           d="m 158.42,565.15 94.944,0 0,1.92 -94.944,0 0,-1.92 z"
           style="fill:#000000;fill-opacity:1;fill-rule:evenodd;stroke:none"
           id="path190"
           inkscape:connector-curvature="0" /><path
           d="m 264.89,565.15 94.944,0 0,1.92 -94.944,0 0,-1.92 z"
           style="fill:#000000;fill-opacity:1;fill-rule:evenodd;stroke:none"
           id="path192"
           inkscape:connector-curvature="0" /><path
           d="m 262.97,565.15 1.92,0 0,62.4 -1.92,0 0,-62.4 z"
           style="fill:#000000;fill-opacity:1;fill-rule:evenodd;stroke:none"
           id="path194"
           inkscape:connector-curvature="0" /><path
           d="m 357.91,565.15 1.92,0 0,60.48 -1.92,0 0,-60.48 z"
           style="fill:#000000;fill-opacity:1;fill-rule:evenodd;stroke:none"
           id="path196"
           inkscape:connector-curvature="0" /><path
           d="m 264.89,554.35 94.944,0 0,1.92 -94.944,0 0,-1.92 z"
           style="fill:#000000;fill-opacity:1;fill-rule:evenodd;stroke:none"
           id="path198"
           inkscape:connector-curvature="0" /><path
           d="m 369.43,565.15 1.92,0 0,62.4 -1.92,0 0,-62.4 z"
           style="fill:#000000;fill-opacity:1;fill-rule:evenodd;stroke:none"
           id="path200"
           inkscape:connector-curvature="0" /><path
           d="m 464.38,565.15 1.92,0 0,60.48 -1.92,0 0,-60.48 z"
           style="fill:#000000;fill-opacity:1;fill-rule:evenodd;stroke:none"
           id="path202"
           inkscape:connector-curvature="0" /><path
           d="m 264.89,493.85 94.944,0 0,1.92 -94.944,0 0,-1.92 z"
           style="fill:#000000;fill-opacity:1;fill-rule:evenodd;stroke:none"
           id="path204"
           inkscape:connector-curvature="0" /><path
           d="m 262.97,493.85 1.92,0 0,62.424 -1.92,0 0,-62.424 z"
           style="fill:#000000;fill-opacity:1;fill-rule:evenodd;stroke:none"
           id="path206"
           inkscape:connector-curvature="0" /><path
           d="m 357.91,493.85 1.92,0 0,60.504 -1.92,0 0,-60.504 z"
           style="fill:#000000;fill-opacity:1;fill-rule:evenodd;stroke:none"
           id="path208"
           inkscape:connector-curvature="0" /><path
           d="m 50.04,636.43 1.92,0 0,62.424 -1.92,0 0,-62.424 z"
           style="fill:#000000;fill-opacity:1;fill-rule:evenodd;stroke:none"
           id="path210"
           inkscape:connector-curvature="0" /><path
           d="m 144.98,636.43 1.92,0 0,60.504 -1.92,0 0,-60.504 z"
           style="fill:#000000;fill-opacity:1;fill-rule:evenodd;stroke:none"
           id="path212"
           inkscape:connector-curvature="0" /><path
           d="m 156.5,565.15 1.92,0 0,62.4 -1.92,0 0,-62.4 z"
           style="fill:#000000;fill-opacity:1;fill-rule:evenodd;stroke:none"
           id="path214"
           inkscape:connector-curvature="0" /><path
           d="m 251.45,565.15 1.92,0 0,60.48 -1.92,0 0,-60.48 z"
           style="fill:#000000;fill-opacity:1;fill-rule:evenodd;stroke:none"
           id="path216"
           inkscape:connector-curvature="0" /><path
           d="m 369.43,493.85 1.92,0 0,62.424 -1.92,0 0,-62.424 z"
           style="fill:#000000;fill-opacity:1;fill-rule:evenodd;stroke:none"
           id="path218"
           inkscape:connector-curvature="0" /><path
           d="m 464.38,493.85 1.92,0 0,60.504 -1.92,0 0,-60.504 z"
           style="fill:#000000;fill-opacity:1;fill-rule:evenodd;stroke:none"
           id="path220"
           inkscape:connector-curvature="0" /><path
           d="m 264.89,768.22 94.944,0 0,1.92 -94.944,0 0,-1.92 z"
           style="fill:#000000;fill-opacity:1;fill-rule:evenodd;stroke:none"
           id="path222"
           inkscape:connector-curvature="0" /><path
           d="m 264.89,707.74 94.944,0 0,1.92 -94.944,0 0,-1.92 z"
           style="fill:#000000;fill-opacity:1;fill-rule:evenodd;stroke:none"
           id="path224"
           inkscape:connector-curvature="0" /><path
           d="m 371.35,696.94 94.944,0 0,1.92 -94.944,0 0,-1.92 z"
           style="fill:#000000;fill-opacity:1;fill-rule:evenodd;stroke:none"
           id="path226"
           inkscape:connector-curvature="0" /><path
           d="m 371.35,636.43 94.944,0 0,1.92 -94.944,0 0,-1.92 z"
           style="fill:#000000;fill-opacity:1;fill-rule:evenodd;stroke:none"
           id="path228"
           inkscape:connector-curvature="0" /><path
           d="m 371.35,625.63 94.944,0 0,1.92 -94.944,0 0,-1.92 z"
           style="fill:#000000;fill-opacity:1;fill-rule:evenodd;stroke:none"
           id="path230"
           inkscape:connector-curvature="0" /><path
           d="m 371.35,565.15 94.944,0 0,1.92 -94.944,0 0,-1.92 z"
           style="fill:#000000;fill-opacity:1;fill-rule:evenodd;stroke:none"
           id="path232"
           inkscape:connector-curvature="0" /><path
           d="m 371.35,554.35 94.944,0 0,1.92 -94.944,0 0,-1.92 z"
           style="fill:#000000;fill-opacity:1;fill-rule:evenodd;stroke:none"
           id="path234"
           inkscape:connector-curvature="0" /><path
           d="m 371.35,493.85 94.944,0 0,1.92 -94.944,0 0,-1.92 z"
           style="fill:#000000;fill-opacity:1;fill-rule:evenodd;stroke:none"
           id="path236"
           inkscape:connector-curvature="0" /></g></g></g></svg>
