<?xml version="1.0" encoding="UTF-8" standalone="no"?>
<svg
   xmlns:dc="http://purl.org/dc/elements/1.1/"
   xmlns:cc="http://creativecommons.org/ns#"
   xmlns:rdf="http://www.w3.org/1999/02/22-rdf-syntax-ns#"
   xmlns:svg="http://www.w3.org/2000/svg"
   xmlns="http://www.w3.org/2000/svg"
   viewBox="0 0 588.125 432.51252"
   height="432.51251"
   width="588.125"
   xml:space="preserve"
   version="1.1"
   id="svg2"><title
     id="title3564">Tilemap Belgium</title><metadata
     id="metadata8"><rdf:RDF><cc:Work
         rdf:about=""><dc:format>image/svg+xml</dc:format><dc:type
           rdf:resource="http://purl.org/dc/dcmitype/StillImage" /><dc:title>Tilemap Belgium</dc:title><dc:date>2016/01/08</dc:date><dc:creator><cc:Agent><dc:title>Michel Stuyts</dc:title></cc:Agent></dc:creator><dc:rights><cc:Agent><dc:title>Open Source</dc:title></cc:Agent></dc:rights><dc:language>Dutch/French</dc:language></cc:Work></rdf:RDF></metadata><defs
     id="defs6"><clipPath
       id="clipPath16"
       clipPathUnits="userSpaceOnUse"><path
         style="clip-rule:evenodd"
         id="path18"
         d="m 51.48,440.33 469.42,0 0,346.37 -469.42,0 0,-346.37 z" /></clipPath><clipPath
       id="clipPath26"
       clipPathUnits="userSpaceOnUse"><path
         style="clip-rule:evenodd"
         id="path28"
         d="m 51.48,709.18 469.42,0 0,59.52 -469.42,0 0,-59.52 z" /></clipPath><clipPath
       id="clipPath38"
       clipPathUnits="userSpaceOnUse"><path
         style="clip-rule:evenodd"
         id="path40"
         d="m 51.48,637.87 93.984,0 0,59.544 -93.984,0 0,-59.544 z" /></clipPath><clipPath
       id="clipPath54"
       clipPathUnits="userSpaceOnUse"><path
         style="clip-rule:evenodd"
         id="path56"
         d="m 157.94,637.87 93.984,0 0,59.544 -93.984,0 0,-59.544 z" /></clipPath><clipPath
       id="clipPath70"
       clipPathUnits="userSpaceOnUse"><path
         style="clip-rule:evenodd"
         id="path72"
         d="m 264.41,637.87 93.984,0 0,59.544 -93.984,0 0,-59.544 z" /></clipPath><clipPath
       id="clipPath86"
       clipPathUnits="userSpaceOnUse"><path
         style="clip-rule:evenodd"
         id="path88"
         d="m 51.48,637.87 469.42,0 0,59.544 -469.42,0 0,-59.544 z" /></clipPath><clipPath
       id="clipPath98"
       clipPathUnits="userSpaceOnUse"><path
         style="clip-rule:evenodd"
         id="path100"
         d="m 51.48,566.59 469.42,0 0,59.52 -469.42,0 0,-59.52 z" /></clipPath><clipPath
       id="clipPath110"
       clipPathUnits="userSpaceOnUse"><path
         style="clip-rule:evenodd"
         id="path112"
         d="m 264.41,566.59 93.984,0 0,59.52 -93.984,0 0,-59.52 z" /></clipPath><clipPath
       id="clipPath126"
       clipPathUnits="userSpaceOnUse"><path
         style="clip-rule:evenodd"
         id="path128"
         d="m 51.48,566.59 469.42,0 0,59.52 -469.42,0 0,-59.52 z" /></clipPath><clipPath
       id="clipPath138"
       clipPathUnits="userSpaceOnUse"><path
         style="clip-rule:evenodd"
         id="path140"
         d="m 51.48,495.29 469.42,0 0,59.544 -469.42,0 0,-59.544 z" /></clipPath><clipPath
       id="clipPath154"
       clipPathUnits="userSpaceOnUse"><path
         style="clip-rule:evenodd"
         id="path156"
         d="m 49.56,438.29 473.38,0 0,350.33 -473.38,0 0,-350.33 z" /></clipPath></defs><g
     transform="matrix(1.25,0,0,-1.25,-62.55,983.375)"
     id="g10"><g
       transform="translate(25.218544,-16.392053)"
       id="g22"><g
         clip-path="url(#clipPath26)"
         id="g24"><text
   id="text30"
   style="font-variant:normal;font-weight:bold;font-size:14.03999996px;font-family:Helvetica;-inkscape-font-specification:Helvetica-Bold;writing-mode:lr-tb;fill:#000000;fill-opacity:1;fill-rule:nonzero;stroke:none"
   transform="matrix(1,0,0,-1,275.33,733.78)"><tspan
     id="tspan32"
     y="0"
     x="0 9.7156801 18.237961 22.91328 34.187401 41.993641 47.497318 56.0196 63.82584">Antwerpen</tspan></text>


</g></g><g
       transform="translate(25.218544,-16.392053)"
       id="g34"><g
         clip-path="url(#clipPath38)"
         id="g36"><text
   id="text42"
   style="font-variant:normal;font-weight:bold;font-size:14.03999996px;font-family:Helvetica;-inkscape-font-specification:Helvetica-Bold;writing-mode:lr-tb;fill:#000000;fill-opacity:1;fill-rule:nonzero;stroke:none"
   transform="matrix(1,0,0,-1,79.44,671.26)"><tspan
     id="tspan44"
     y="0"
     x="0 13.1976 21.003839 28.81008 33.485401">West-</tspan></text>


<text
   id="text46"
   style="font-variant:normal;font-weight:bold;font-size:14.03999996px;font-family:Helvetica;-inkscape-font-specification:Helvetica-Bold;writing-mode:lr-tb;fill:#000000;fill-opacity:1;fill-rule:nonzero;stroke:none"
   transform="matrix(1,0,0,-1,60.72,653.71)"><tspan
     id="tspan48"
     y="0"
     x="0 9.3646803 13.30992 21.116159 28.9224 37.430641 45.952919 53.759159 59.26284 67.069077">Vlaanderen</tspan></text>


</g></g><g
       transform="translate(25.218544,-16.392053)"
       id="g50"><g
         clip-path="url(#clipPath54)"
         id="g52"><text
   id="text58"
   style="font-variant:normal;font-weight:bold;font-size:14.03999996px;font-family:Helvetica;-inkscape-font-specification:Helvetica-Bold;writing-mode:lr-tb;fill:#000000;fill-opacity:1;fill-rule:nonzero;stroke:none"
   transform="matrix(1,0,0,-1,186.74,671.26)"><tspan
     id="tspan60"
     y="0"
     x="0 10.92312 19.4454 27.25164 31.92696">Oost-</tspan></text>


<text
   id="text62"
   style="font-variant:normal;font-weight:bold;font-size:14.03999996px;font-family:Helvetica;-inkscape-font-specification:Helvetica-Bold;writing-mode:lr-tb;fill:#000000;fill-opacity:1;fill-rule:nonzero;stroke:none"
   transform="matrix(1,0,0,-1,167.18,653.71)"><tspan
     id="tspan64"
     y="0"
     x="0 9.3646803 13.30992 21.116159 28.9224 37.430641 45.952919 53.759159 59.26284 67.069077">Vlaanderen</tspan></text>


</g></g><g
       transform="translate(25.218544,-16.392053)"
       id="g66"><g
         clip-path="url(#clipPath70)"
         id="g68"><text
   id="text74"
   style="font-variant:normal;font-weight:bold;font-size:14.03999996px;font-family:Helvetica;-inkscape-font-specification:Helvetica-Bold;writing-mode:lr-tb;fill:#000000;fill-opacity:1;fill-rule:nonzero;stroke:none"
   transform="matrix(1,0,0,-1,284.57,671.26)"><tspan
     id="tspan76"
     y="0"
     x="0 9.3646803 13.30992 21.116159 28.9224 41.403961 49.210201">Vlaams-</tspan></text>


<text
   id="text78"
   style="font-variant:normal;font-weight:bold;font-size:14.03999996px;font-family:Helvetica;-inkscape-font-specification:Helvetica-Bold;writing-mode:lr-tb;fill:#000000;fill-opacity:1;fill-rule:nonzero;stroke:none"
   transform="matrix(1,0,0,-1,285.05,653.71)"><tspan
     id="tspan80"
     y="0"
     x="0 10.08072 15.5844 23.39064 31.89888 39.70512 48.21336">Brabant</tspan></text>


</g></g><g
       transform="translate(25.218544,-16.392053)"
       id="g82"><g
         clip-path="url(#clipPath86)"
         id="g84"><text
   id="text90"
   style="font-variant:normal;font-weight:bold;font-size:14.03999996px;font-family:Helvetica;-inkscape-font-specification:Helvetica-Bold;writing-mode:lr-tb;fill:#000000;fill-opacity:1;fill-rule:nonzero;stroke:none"
   transform="matrix(1,0,0,-1,389.95,662.47)"><tspan
     id="tspan92"
     y="0"
     x="0 8.5222797 12.46752 24.94908 33.471359 41.993641 47.497318">Limburg</tspan></text>


</g></g><g
       transform="translate(25.218544,-16.392053)"
       id="g94"><g
         clip-path="url(#clipPath98)"
         id="g96"><text
   id="text102"
   style="font-variant:normal;font-weight:bold;font-size:14.03999996px;font-family:Helvetica;-inkscape-font-specification:Helvetica-Bold;writing-mode:lr-tb;fill:#000000;fill-opacity:1;fill-rule:nonzero;stroke:none"
   transform="matrix(1,0,0,-1,179.3,591.19)"><tspan
     id="tspan104"
     y="0"
     x="0 10.08072 17.886959 21.832199 30.354481 38.160721 46.668961">Hainaut</tspan></text>


</g></g><g
       transform="translate(25.218544,-16.392053)"
       id="g106"><g
         clip-path="url(#clipPath110)"
         id="g108"><text
   id="text114"
   style="font-variant:normal;font-weight:bold;font-size:14.03999996px;font-family:Helvetica;-inkscape-font-specification:Helvetica-Bold;writing-mode:lr-tb;fill:#000000;fill-opacity:1;fill-rule:nonzero;stroke:none"
   transform="matrix(1,0,0,-1,285.05,599.95)"><tspan
     id="tspan116"
     y="0"
     x="0 10.08072 15.5844 23.39064 31.89888 39.70512 48.21336 52.88868">Brabant </tspan></text>


<text
   id="text118"
   style="font-variant:normal;font-weight:bold;font-size:14.03999996px;font-family:Helvetica;-inkscape-font-specification:Helvetica-Bold;writing-mode:lr-tb;fill:#000000;fill-opacity:1;fill-rule:nonzero;stroke:none"
   transform="matrix(1,0,0,-1,289.49,582.43)"><tspan
     id="tspan120"
     y="0"
     x="0 11.26008 19.06632 23.01156 26.9568 35.47908">wallon</tspan></text>


</g></g><g
       transform="translate(25.218544,-16.392053)"
       id="g122"><g
         clip-path="url(#clipPath126)"
         id="g124"><text
   id="text130"
   style="font-variant:normal;font-weight:bold;font-size:14.03999996px;font-family:Helvetica;-inkscape-font-specification:Helvetica-Bold;writing-mode:lr-tb;fill:#000000;fill-opacity:1;fill-rule:nonzero;stroke:none"
   transform="matrix(1,0,0,-1,399.67,591.19)"><tspan
     id="tspan132"
     y="0"
     x="0 8.5222797 12.46752 20.27376 28.782">Liège</tspan></text>


</g></g><g
       transform="translate(25.218544,-16.392053)"
       id="g134"><g
         clip-path="url(#clipPath138)"
         id="g136"><text
   id="text142"
   style="font-variant:normal;font-weight:bold;font-size:14.03999996px;font-family:Helvetica;-inkscape-font-specification:Helvetica-Bold;writing-mode:lr-tb;fill:#000000;fill-opacity:1;fill-rule:nonzero;stroke:none"
   transform="matrix(1,0,0,-1,289.25,519.91)"><tspan
     id="tspan144"
     y="0"
     x="0 10.08072 17.886959 30.368521 38.876759">Namur</tspan></text>


<text
   id="text146"
   style="font-variant:normal;font-weight:bold;font-size:14.03999996px;font-family:Helvetica;-inkscape-font-specification:Helvetica-Bold;writing-mode:lr-tb;fill:#000000;fill-opacity:1;fill-rule:nonzero;stroke:none"
   transform="matrix(1,0,0,-1,375.55,519.91)"><tspan
     id="tspan148"
     y="0"
     x="0 8.5222797 17.044559 24.8508 32.65704 45.138599 53.646839 62.169121 70.691399 76.195084">Luxembourg</tspan></text>


</g></g><g
       transform="translate(25.218544,-16.392053)"
       id="g150"><g
         clip-path="url(#clipPath154)"
         id="g152"><path
           id="path158"
           style="fill:#000000;fill-opacity:1;fill-rule:evenodd;stroke:none"
           d="m 51.96,696.94 94.944,0 0,1.92 -94.944,0 0,-1.92 z" /><path
           id="path160"
           style="fill:#000000;fill-opacity:1;fill-rule:evenodd;stroke:none"
           d="m 158.42,696.94 94.944,0 0,1.92 -94.944,0 0,-1.92 z" /><path
           id="path162"
           style="fill:#000000;fill-opacity:1;fill-rule:evenodd;stroke:none"
           d="m 262.97,707.74 1.92,0 0,62.4 -1.92,0 0,-62.4 z" /><path
           id="path164"
           style="fill:#000000;fill-opacity:1;fill-rule:evenodd;stroke:none"
           d="m 357.91,707.74 1.92,0 0,60.48 -1.92,0 0,-60.48 z" /><path
           id="path166"
           style="fill:#000000;fill-opacity:1;fill-rule:evenodd;stroke:none"
           d="m 264.89,696.94 94.944,0 0,1.92 -94.944,0 0,-1.92 z" /><path
           id="path168"
           style="fill:#000000;fill-opacity:1;fill-rule:evenodd;stroke:none"
           d="m 51.96,636.43 94.944,0 0,1.92 -94.944,0 0,-1.92 z" /><path
           id="path170"
           style="fill:#000000;fill-opacity:1;fill-rule:evenodd;stroke:none"
           d="m 158.42,636.43 94.944,0 0,1.92 -94.944,0 0,-1.92 z" /><path
           id="path172"
           style="fill:#000000;fill-opacity:1;fill-rule:evenodd;stroke:none"
           d="m 264.89,636.43 94.944,0 0,1.92 -94.944,0 0,-1.92 z" /><path
           id="path174"
           style="fill:#000000;fill-opacity:1;fill-rule:evenodd;stroke:none"
           d="m 156.5,636.43 1.92,0 0,62.424 -1.92,0 0,-62.424 z" /><path
           id="path176"
           style="fill:#000000;fill-opacity:1;fill-rule:evenodd;stroke:none"
           d="m 251.45,636.43 1.92,0 0,60.504 -1.92,0 0,-60.504 z" /><path
           id="path178"
           style="fill:#000000;fill-opacity:1;fill-rule:evenodd;stroke:none"
           d="m 158.42,625.63 94.944,0 0,1.92 -94.944,0 0,-1.92 z" /><path
           id="path180"
           style="fill:#000000;fill-opacity:1;fill-rule:evenodd;stroke:none"
           d="m 262.97,636.43 1.92,0 0,62.424 -1.92,0 0,-62.424 z" /><path
           id="path182"
           style="fill:#000000;fill-opacity:1;fill-rule:evenodd;stroke:none"
           d="m 357.91,636.43 1.92,0 0,60.504 -1.92,0 0,-60.504 z" /><path
           id="path184"
           style="fill:#000000;fill-opacity:1;fill-rule:evenodd;stroke:none"
           d="m 264.89,625.63 94.944,0 0,1.92 -94.944,0 0,-1.92 z" /><path
           id="path186"
           style="fill:#000000;fill-opacity:1;fill-rule:evenodd;stroke:none"
           d="m 369.43,636.43 1.92,0 0,62.424 -1.92,0 0,-62.424 z" /><path
           id="path188"
           style="fill:#000000;fill-opacity:1;fill-rule:evenodd;stroke:none"
           d="m 464.38,636.43 1.92,0 0,60.504 -1.92,0 0,-60.504 z" /><path
           id="path190"
           style="fill:#000000;fill-opacity:1;fill-rule:evenodd;stroke:none"
           d="m 158.42,565.15 94.944,0 0,1.92 -94.944,0 0,-1.92 z" /><path
           id="path192"
           style="fill:#000000;fill-opacity:1;fill-rule:evenodd;stroke:none"
           d="m 264.89,565.15 94.944,0 0,1.92 -94.944,0 0,-1.92 z" /><path
           id="path194"
           style="fill:#000000;fill-opacity:1;fill-rule:evenodd;stroke:none"
           d="m 262.97,565.15 1.92,0 0,62.4 -1.92,0 0,-62.4 z" /><path
           id="path196"
           style="fill:#000000;fill-opacity:1;fill-rule:evenodd;stroke:none"
           d="m 357.91,565.15 1.92,0 0,60.48 -1.92,0 0,-60.48 z" /><path
           id="path198"
           style="fill:#000000;fill-opacity:1;fill-rule:evenodd;stroke:none"
           d="m 264.89,554.35 94.944,0 0,1.92 -94.944,0 0,-1.92 z" /><path
           id="path200"
           style="fill:#000000;fill-opacity:1;fill-rule:evenodd;stroke:none"
           d="m 369.43,565.15 1.92,0 0,62.4 -1.92,0 0,-62.4 z" /><path
           id="path202"
           style="fill:#000000;fill-opacity:1;fill-rule:evenodd;stroke:none"
           d="m 464.38,565.15 1.92,0 0,60.48 -1.92,0 0,-60.48 z" /><path
           id="path204"
           style="fill:#000000;fill-opacity:1;fill-rule:evenodd;stroke:none"
           d="m 264.89,493.85 94.944,0 0,1.92 -94.944,0 0,-1.92 z" /><path
           id="path206"
           style="fill:#000000;fill-opacity:1;fill-rule:evenodd;stroke:none"
           d="m 262.97,493.85 1.92,0 0,62.424 -1.92,0 0,-62.424 z" /><path
           id="path208"
           style="fill:#000000;fill-opacity:1;fill-rule:evenodd;stroke:none"
           d="m 357.91,493.85 1.92,0 0,60.504 -1.92,0 0,-60.504 z" /><path
           id="path210"
           style="fill:#000000;fill-opacity:1;fill-rule:evenodd;stroke:none"
           d="m 50.04,636.43 1.92,0 0,62.424 -1.92,0 0,-62.424 z" /><path
           id="path212"
           style="fill:#000000;fill-opacity:1;fill-rule:evenodd;stroke:none"
           d="m 144.98,636.43 1.92,0 0,60.504 -1.92,0 0,-60.504 z" /><path
           id="path214"
           style="fill:#000000;fill-opacity:1;fill-rule:evenodd;stroke:none"
           d="m 156.5,565.15 1.92,0 0,62.4 -1.92,0 0,-62.4 z" /><path
           id="path216"
           style="fill:#000000;fill-opacity:1;fill-rule:evenodd;stroke:none"
           d="m 251.45,565.15 1.92,0 0,60.48 -1.92,0 0,-60.48 z" /><path
           id="path218"
           style="fill:#000000;fill-opacity:1;fill-rule:evenodd;stroke:none"
           d="m 369.43,493.85 1.92,0 0,62.424 -1.92,0 0,-62.424 z" /><path
           id="path220"
           style="fill:#000000;fill-opacity:1;fill-rule:evenodd;stroke:none"
           d="m 464.38,493.85 1.92,0 0,60.504 -1.92,0 0,-60.504 z" /><path
           id="path222"
           style="fill:#000000;fill-opacity:1;fill-rule:evenodd;stroke:none"
           d="m 264.89,768.22 94.944,0 0,1.92 -94.944,0 0,-1.92 z" /><path
           id="path224"
           style="fill:#000000;fill-opacity:1;fill-rule:evenodd;stroke:none"
           d="m 264.89,707.74 94.944,0 0,1.92 -94.944,0 0,-1.92 z" /><path
           id="path226"
           style="fill:#000000;fill-opacity:1;fill-rule:evenodd;stroke:none"
           d="m 371.35,696.94 94.944,0 0,1.92 -94.944,0 0,-1.92 z" /><path
           id="path228"
           style="fill:#000000;fill-opacity:1;fill-rule:evenodd;stroke:none"
           d="m 371.35,636.43 94.944,0 0,1.92 -94.944,0 0,-1.92 z" /><path
           id="path230"
           style="fill:#000000;fill-opacity:1;fill-rule:evenodd;stroke:none"
           d="m 371.35,625.63 94.944,0 0,1.92 -94.944,0 0,-1.92 z" /><path
           id="path232"
           style="fill:#000000;fill-opacity:1;fill-rule:evenodd;stroke:none"
           d="m 371.35,565.15 94.944,0 0,1.92 -94.944,0 0,-1.92 z" /><path
           id="path234"
           style="fill:#000000;fill-opacity:1;fill-rule:evenodd;stroke:none"
           d="m 371.35,554.35 94.944,0 0,1.92 -94.944,0 0,-1.92 z" /><path
           id="path236"
           style="fill:#000000;fill-opacity:1;fill-rule:evenodd;stroke:none"
           d="m 371.35,493.85 94.944,0 0,1.92 -94.944,0 0,-1.92 z" /></g></g></g></svg>
