  0
SECTION
  2
HEADER
  9
$ACADVER
  1
AC1012
  9
$DWGCODEPAGE
  3
ansi_1252
  9
$INSBASE
 10
0.0
 20
0.0
 30
0.0
  9
$EXTMIN
 10
40358.35629803404
 20
59248.2464310496
 30
0.0
  9
$EXTMAX
 10
243753.464063509
 20
249248.2464345194
 30
0.0
  9
$LIMMIN
 10
0.0
 20
0.0
  9
$LIMMAX
 10
12.0
 20
9.0
  9
$ORTHOMODE
 70
     0
  9
$REGENMODE
 70
     1
  9
$FILLMODE
 70
     1
  9
$QTEXTMODE
 70
     0
  9
$MIRRTEXT
 70
     1
  9
$DRAGMODE
 70
     2
  9
$LTSCALE
 40
1.0
  9
$OSMODE
 70
   511
  9
$ATTMODE
 70
     1
  9
$TEXTSIZE
 40
0.2
  9
$TRACEWID
 40
0.05
  9
$TEXTSTYLE
  7
STANDARD
  9
$CLAYER
  8
0
  9
$CELTYPE
  6
BYLAYER
  9
$CECOLOR
 62
   256
  9
$CELTSCALE
 40
1.0
  9
$DELOBJ
 70
     1
  9
$DISPSILH
 70
     0
  9
$DIMSCALE
 40
1.0
  9
$DIMASZ
 40
0.18
  9
$DIMEXO
 40
0.0625
  9
$DIMDLI
 40
0.38
  9
$DIMRND
 40
0.0
  9
$DIMDLE
 40
0.0
  9
$DIMEXE
 40
0.18
  9
$DIMTP
 40
0.0
  9
$DIMTM
 40
0.0
  9
$DIMTXT
 40
0.18
  9
$DIMCEN
 40
0.09
  9
$DIMTSZ
 40
0.0
  9
$DIMTOL
 70
     0
  9
$DIMLIM
 70
     0
  9
$DIMTIH
 70
     1
  9
$DIMTOH
 70
     1
  9
$DIMSE1
 70
     0
  9
$DIMSE2
 70
     0
  9
$DIMTAD
 70
     0
  9
$DIMZIN
 70
     0
  9
$DIMBLK
  1

  9
$DIMASO
 70
     1
  9
$DIMSHO
 70
     1
  9
$DIMPOST
  1

  9
$DIMAPOST
  1

  9
$DIMALT
 70
     0
  9
$DIMALTD
 70
     2
  9
$DIMALTF
 40
25.4
  9
$DIMLFAC
 40
1.0
  9
$DIMTOFL
 70
     0
  9
$DIMTVP
 40
0.0
  9
$DIMTIX
 70
     0
  9
$DIMSOXD
 70
     0
  9
$DIMSAH
 70
     0
  9
$DIMBLK1
  1

  9
$DIMBLK2
  1

  9
$DIMSTYLE
  2
STANDARD
  9
$DIMCLRD
 70
     0
  9
$DIMCLRE
 70
     0
  9
$DIMCLRT
 70
     0
  9
$DIMTFAC
 40
1.0
  9
$DIMGAP
 40
0.09
  9
$DIMJUST
 70
     0
  9
$DIMSD1
 70
     0
  9
$DIMSD2
 70
     0
  9
$DIMTOLJ
 70
     1
  9
$DIMTZIN
 70
     0
  9
$DIMALTZ
 70
     0
  9
$DIMALTTZ
 70
     0
  9
$DIMFIT
 70
     5
  9
$DIMUPT
 70
     0
  9
$DIMUNIT
 70
     2
  9
$DIMDEC
 70
     4
  9
$DIMTDEC
 70
     4
  9
$DIMALTU
 70
     2
  9
$DIMALTTD
 70
     2
  9
$DIMTXSTY
  7
STANDARD
  9
$DIMAUNIT
 70
     0
  9
$LUNITS
 70
     2
  9
$LUPREC
 70
     4
  9
$SKETCHINC
 40
0.1
  9
$FILLETRAD
 40
0.5
  9
$AUNITS
 70
     0
  9
$AUPREC
 70
     0
  9
$MENU
  1
.
  9
$ELEVATION
 40
0.0
  9
$PELEVATION
 40
0.0
  9
$THICKNESS
 40
0.0
  9
$LIMCHECK
 70
     0
  9
$CHAMFERA
 40
0.0
  9
$CHAMFERB
 40
0.0
  9
$CHAMFERC
 40
0.0
  9
$CHAMFERD
 40
0.0
  9
$SKPOLY
 70
     0
  9
$TDCREATE
 40
2457773.513066551
  9
$TDUPDATE
 40
2457773.563359479
  9
$TDINDWG
 40
0.0016667245
  9
$TDUSRTIMER
 40
2457773.521579884
  9
$USRTIMER
 70
     1
  9
$ANGBASE
 50
0.0
  9
$ANGDIR
 70
     0
  9
$PDMODE
 70
     0
  9
$PDSIZE
 40
0.0
  9
$PLINEWID
 40
0.0
  9
$COORDS
 70
     1
  9
$SPLFRAME
 70
     0
  9
$SPLINETYPE
 70
     6
  9
$SPLINESEGS
 70
     8
  9
$ATTDIA
 70
     0
  9
$ATTREQ
 70
     1
  9
$HANDLING
 70
     1
  9
$HANDSEED
  5
28A
  9
$SURFTAB1
 70
     6
  9
$SURFTAB2
 70
     6
  9
$SURFTYPE
 70
     6
  9
$SURFU
 70
     6
  9
$SURFV
 70
     6
  9
$UCSNAME
  2

  9
$UCSORG
 10
0.0
 20
0.0
 30
0.0
  9
$UCSXDIR
 10
1.0
 20
0.0
 30
0.0
  9
$UCSYDIR
 10
0.0
 20
1.0
 30
0.0
  9
$PUCSNAME
  2

  9
$PUCSORG
 10
0.0
 20
0.0
 30
0.0
  9
$PUCSXDIR
 10
1.0
 20
0.0
 30
0.0
  9
$PUCSYDIR
 10
0.0
 20
1.0
 30
0.0
  9
$USERI1
 70
     0
  9
$USERI2
 70
     0
  9
$USERI3
 70
     0
  9
$USERI4
 70
     0
  9
$USERI5
 70
     0
  9
$USERR1
 40
0.0
  9
$USERR2
 40
0.0
  9
$USERR3
 40
0.0
  9
$USERR4
 40
0.0
  9
$USERR5
 40
0.0
  9
$WORLDVIEW
 70
     1
  9
$SHADEDGE
 70
     3
  9
$SHADEDIF
 70
    70
  9
$TILEMODE
 70
     1
  9
$MAXACTVP
 70
    64
  9
$PINSBASE
 10
0.0
 20
0.0
 30
0.0
  9
$PLIMCHECK
 70
     0
  9
$PEXTMIN
 10
1.000000000000000E+20
 20
1.000000000000000E+20
 30
1.000000000000000E+20
  9
$PEXTMAX
 10
-1.000000000000000E+20
 20
-1.000000000000000E+20
 30
-1.000000000000000E+20
  9
$PLIMMIN
 10
0.0
 20
0.0
  9
$PLIMMAX
 10
0.0
 20
0.0
  9
$UNITMODE
 70
     0
  9
$VISRETAIN
 70
     1
  9
$PLINEGEN
 70
     0
  9
$PSLTSCALE
 70
     1
  9
$TREEDEPTH
 70
  3020
  9
$PICKSTYLE
 70
     1
  9
$CMLSTYLE
  2
STANDARD
  9
$CMLJUST
 70
     0
  9
$CMLSCALE
 40
1.0
  9
$SAVEIMAGES
 70
     1
  0
ENDSEC
  0
SECTION
  2
CLASSES
  0
CLASS
  1
ACDBDICTIONARYWDFLT
  2
AcDbDictionaryWithDefault
  3
ObjectDBX Classes
 90
    32768
280
     0
281
     0
  0
CLASS
  1
MATERIAL
  2
AcDbMaterial
  3
ObjectDBX Classes
 90
     1153
280
     0
281
     0
  0
CLASS
  1
SCALE
  2
AcDbScale
  3
ObjectDBX Classes
 90
     1153
280
     0
281
     0
  0
CLASS
  1
VISUALSTYLE
  2
AcDbVisualStyle
  3
ObjectDBX Classes
 90
     4095
280
     0
281
     0
  0
CLASS
  1
TABLESTYLE
  2
AcDbTableStyle
  3
ObjectDBX Classes
 90
     4095
280
     0
281
     0
  0
CLASS
  1
MLEADERSTYLE
  2
AcDbMLeaderStyle
  3
ACDB_MLEADERSTYLE_CLASS
 90
     4095
280
     0
281
     0
  0
CLASS
  1
SUN
  2
AcDbSun
  3
SCENEOE
 90
     1153
280
     0
281
     0
  0
CLASS
  1
RASTERVARIABLES
  2
AcDbRasterVariables
  3
ISM
 90
    32768
280
     0
281
     0
  0
CLASS
  1
XRECORD
  2
AcDbXrecord
  3
ObjectDBX Classes
 90
    32768
280
     0
281
     0
  0
ENDSEC
  0
SECTION
  2
TABLES
  0
TABLE
  2
VPORT
  5
1E0
330
0
100
AcDbSymbolTable
 70
     1
  0
VPORT
  5
1F7
330
1E0
100
AcDbSymbolTableRecord
100
AcDbViewportTableRecord
  2
*ACTIVE
 70
     0
 10
0.0
 20
0.0
 11
1.0
 21
1.0
 12
142055.9101807715
 22
154248.2464327845
 13
0.0
 23
0.0
 14
0.5
 24
0.5
 15
0.5
 25
0.5
 16
0.0
 26
0.0
 36
1.0
 17
0.0
 27
0.0
 37
0.0
 40
193800.0000035392
 41
1.070500567167161
 42
50.0
 43
0.0
 44
0.0
 50
0.0
 51
0.0
 71
     0
 72
   100
 73
     1
 74
     3
 75
     0
 76
     0
 77
     0
 78
     0
  0
ENDTAB
  0
TABLE
  2
LTYPE
  5
1DD
330
0
100
AcDbSymbolTable
 70
     1
  0
LTYPE
  5
1EB
330
1DD
100
AcDbSymbolTableRecord
100
AcDbLinetypeTableRecord
  2
BYBLOCK
 70
     0
  3

 72
    65
 73
     0
 40
0.0
  0
LTYPE
  5
1EC
330
1DD
100
AcDbSymbolTableRecord
100
AcDbLinetypeTableRecord
  2
BYLAYER
 70
     0
  3

 72
    65
 73
     0
 40
0.0
  0
LTYPE
  5
1ED
330
1DD
100
AcDbSymbolTableRecord
100
AcDbLinetypeTableRecord
  2
CONTINUOUS
 70
     0
  3
Solid line
 72
    65
 73
     0
 40
0.0
  0
ENDTAB
  0
TABLE
  2
LAYER
  5
1DA
330
0
100
AcDbSymbolTable
 70
     2
  0
LAYER
  5
1E8
330
1DA
100
AcDbSymbolTableRecord
100
AcDbLayerTableRecord
  2
0
 70
     0
 62
     7
  6
CONTINUOUS
  0
LAYER
  5
1FE
330
1DA
100
AcDbSymbolTableRecord
100
AcDbLayerTableRecord
  2
TILEMAPBELGIUMHEXAGONV2
 70
     0
 62
     7
  6
CONTINUOUS
  0
ENDTAB
  0
TABLE
  2
STYLE
  5
1DB
330
0
100
AcDbSymbolTable
 70
     1
  0
STYLE
  5
1E9
330
1DB
100
AcDbSymbolTableRecord
100
AcDbTextStyleTableRecord
  2
STANDARD
 70
     0
 40
0.0
 41
1.0
 50
0.0
 71
     0
 42
0.2
  3
txt
  4

  0
ENDTAB
  0
TABLE
  2
VIEW
  5
1DE
330
0
100
AcDbSymbolTable
 70
     0
  0
ENDTAB
  0
TABLE
  2
UCS
  5
1DF
330
0
100
AcDbSymbolTable
 70
     0
  0
ENDTAB
  0
TABLE
  2
APPID
  5
1E1
330
0
100
AcDbSymbolTable
 70
     2
  0
APPID
  5
1EA
330
1E1
100
AcDbSymbolTableRecord
100
AcDbRegAppTableRecord
  2
ACAD
 70
     0
  0
APPID
  5
201
330
1E1
100
AcDbSymbolTableRecord
100
AcDbRegAppTableRecord
  2
ACAD_MLEADERVER
 70
     0
  0
ENDTAB
  0
TABLE
  2
DIMSTYLE
  5
1E2
330
0
100
AcDbSymbolTable
 70
     1
  0
DIMSTYLE
105
202
330
1E2
100
AcDbSymbolTableRecord
100
AcDbDimStyleTableRecord
  2
STANDARD
 70
     0
  3

  4

  5

  6

  7

 40
1.0
 41
0.18
 42
0.0625
 43
0.38
 44
0.18
 45
0.0
 46
0.0
 47
0.0
 48
0.0
140
0.18
141
0.09
142
0.0
143
25.4
144
1.0
145
0.0
146
1.0
147
0.09
 71
     0
 72
     0
 73
     1
 74
     1
 75
     0
 76
     0
 77
     0
 78
     0
170
     0
171
     2
172
     0
173
     0
174
     0
175
     0
176
     0
177
     0
178
     0
270
     2
271
     4
272
     4
273
     2
274
     2
340
1E9
275
     0
280
     0
281
     0
282
     0
283
     1
284
     0
285
     0
286
     0
287
     3
288
     0
  0
ENDTAB
  0
TABLE
  2
BLOCK_RECORD
  5
1D9
330
0
100
AcDbSymbolTable
 70
     0
  0
BLOCK_RECORD
  5
1F4
330
1D9
100
AcDbSymbolTableRecord
100
AcDbBlockTableRecord
  2
*MODEL_SPACE
  0
BLOCK_RECORD
  5
1F2
330
1D9
100
AcDbSymbolTableRecord
100
AcDbBlockTableRecord
  2
*PAPER_SPACE
  0
ENDTAB
  0
ENDSEC
  0
SECTION
  2
BLOCKS
  0
BLOCK
  5
203
330
1F4
100
AcDbEntity
  8
0
100
AcDbBlockBegin
  2
*MODEL_SPACE
 70
     0
 10
0.0
 20
0.0
 30
0.0
  3
*MODEL_SPACE
  1

  0
ENDBLK
  5
21
330
1F4
100
AcDbEntity
  8
0
100
AcDbBlockEnd
  0
BLOCK
  5
204
330
1F2
100
AcDbEntity
 67
     1
  8
0
100
AcDbBlockBegin
  2
*PAPER_SPACE
 70
     0
 10
0.0
 20
0.0
 30
0.0
  3
*PAPER_SPACE
  1

  0
ENDBLK
  5
1D
330
1F2
100
AcDbEntity
 67
     1
  8
0
100
AcDbBlockEnd
  0
ENDSEC
  0
SECTION
  2
ENTITIES
  0
POLYLINE
  5
A2
330
1F4
100
AcDbEntity
  8
TILEMAPBELGIUMHEXAGONV2
100
AcDb2dPolyline
 66
     1
 10
0.0
 20
0.0
 30
0.0
 70
     1
  0
VERTEX
  5
248
330
A2
100
AcDbEntity
  8
TILEMAPBELGIUMHEXAGONV2
100
AcDbVertex
100
AcDb2dVertex
 10
151786.9582496332
 20
87248.24643104998
 30
0.0
  0
VERTEX
  5
249
330
A2
100
AcDbEntity
  8
TILEMAPBELGIUMHEXAGONV2
100
AcDbVertex
100
AcDb2dVertex
 10
137353.2015205072
 20
112248.24643105
 30
0.0
  0
VERTEX
  5
24A
330
A2
100
AcDbEntity
  8
TILEMAPBELGIUMHEXAGONV2
100
AcDbVertex
100
AcDb2dVertex
 10
151786.9582496332
 20
137248.24643105
 30
0.0
  0
VERTEX
  5
24B
330
A2
100
AcDbEntity
  8
TILEMAPBELGIUMHEXAGONV2
100
AcDbVertex
100
AcDb2dVertex
 10
180654.4717078852
 20
137248.24643105
 30
0.0
  0
VERTEX
  5
24C
330
A2
100
AcDbEntity
  8
TILEMAPBELGIUMHEXAGONV2
100
AcDbVertex
100
AcDb2dVertex
 10
195088.2284408258
 20
112248.24643105
 30
0.0
  0
VERTEX
  5
24D
330
A2
100
AcDbEntity
  8
TILEMAPBELGIUMHEXAGONV2
100
AcDbVertex
100
AcDb2dVertex
 10
180654.4717078852
 20
87248.24643104998
 30
0.0
  0
SEQEND
  5
280
330
A2
100
AcDbEntity
  8
TILEMAPBELGIUMHEXAGONV2
  0
POLYLINE
  5
A3
330
1F4
100
AcDbEntity
  8
TILEMAPBELGIUMHEXAGONV2
100
AcDb2dPolyline
 66
     1
 10
0.0
 20
0.0
 30
0.0
 70
     1
  0
VERTEX
  5
24E
330
A3
100
AcDbEntity
  8
TILEMAPBELGIUMHEXAGONV2
100
AcDbVertex
100
AcDb2dVertex
 10
103289.5356383966
 20
115248.24643105
 30
0.0
  0
VERTEX
  5
24F
330
A3
100
AcDbEntity
  8
TILEMAPBELGIUMHEXAGONV2
100
AcDbVertex
100
AcDb2dVertex
 10
88855.77890927061
 20
140248.24643105
 30
0.0
  0
VERTEX
  5
250
330
A3
100
AcDbEntity
  8
TILEMAPBELGIUMHEXAGONV2
100
AcDbVertex
100
AcDb2dVertex
 10
103289.5356383966
 20
165248.24643105
 30
0.0
  0
VERTEX
  5
251
330
A3
100
AcDbEntity
  8
TILEMAPBELGIUMHEXAGONV2
100
AcDbVertex
100
AcDb2dVertex
 10
132157.0490966485
 20
165248.24643105
 30
0.0
  0
VERTEX
  5
252
330
A3
100
AcDbEntity
  8
TILEMAPBELGIUMHEXAGONV2
100
AcDbVertex
100
AcDb2dVertex
 10
146590.8058257746
 20
140248.24643105
 30
0.0
  0
VERTEX
  5
253
330
A3
100
AcDbEntity
  8
TILEMAPBELGIUMHEXAGONV2
100
AcDbVertex
100
AcDb2dVertex
 10
132157.0490966485
 20
115248.24643105
 30
0.0
  0
SEQEND
  5
281
330
A3
100
AcDbEntity
  8
TILEMAPBELGIUMHEXAGONV2
  0
POLYLINE
  5
A4
330
1F4
100
AcDbEntity
  8
TILEMAPBELGIUMHEXAGONV2
100
AcDb2dPolyline
 66
     1
 10
0.0
 20
0.0
 30
0.0
 70
     1
  0
VERTEX
  5
254
330
A4
100
AcDbEntity
  8
TILEMAPBELGIUMHEXAGONV2
100
AcDbVertex
100
AcDb2dVertex
 10
54792.11302716001
 20
143248.24643105
 30
0.0
  0
VERTEX
  5
255
330
A4
100
AcDbEntity
  8
TILEMAPBELGIUMHEXAGONV2
100
AcDbVertex
100
AcDb2dVertex
 10
40358.35629803404
 20
168248.24643105
 30
0.0
  0
VERTEX
  5
256
330
A4
100
AcDbEntity
  8
TILEMAPBELGIUMHEXAGONV2
100
AcDbVertex
100
AcDb2dVertex
 10
54792.11302716001
 20
193248.24643105
 30
0.0
  0
VERTEX
  5
257
330
A4
100
AcDbEntity
  8
TILEMAPBELGIUMHEXAGONV2
100
AcDbVertex
100
AcDb2dVertex
 10
83659.62648541197
 20
193248.24643105
 30
0.0
  0
VERTEX
  5
258
330
A4
100
AcDbEntity
  8
TILEMAPBELGIUMHEXAGONV2
100
AcDbVertex
100
AcDb2dVertex
 10
98093.38321453794
 20
168248.24643105
 30
0.0
  0
VERTEX
  5
259
330
A4
100
AcDbEntity
  8
TILEMAPBELGIUMHEXAGONV2
100
AcDbVertex
100
AcDb2dVertex
 10
83659.62648541197
 20
143248.24643105
 30
0.0
  0
SEQEND
  5
282
330
A4
100
AcDbEntity
  8
TILEMAPBELGIUMHEXAGONV2
  0
POLYLINE
  5
A5
330
1F4
100
AcDbEntity
  8
TILEMAPBELGIUMHEXAGONV2
100
AcDb2dPolyline
 66
     1
 10
0.0
 20
0.0
 30
0.0
 70
     1
  0
VERTEX
  5
25A
330
A5
100
AcDbEntity
  8
TILEMAPBELGIUMHEXAGONV2
100
AcDbVertex
100
AcDb2dVertex
 10
103289.5356383966
 20
171248.24643105
 30
0.0
  0
VERTEX
  5
25B
330
A5
100
AcDbEntity
  8
TILEMAPBELGIUMHEXAGONV2
100
AcDbVertex
100
AcDb2dVertex
 10
88855.77890927061
 20
196248.24643105
 30
0.0
  0
VERTEX
  5
25C
330
A5
100
AcDbEntity
  8
TILEMAPBELGIUMHEXAGONV2
100
AcDbVertex
100
AcDb2dVertex
 10
103289.5356383966
 20
221248.24643105
 30
0.0
  0
VERTEX
  5
25D
330
A5
100
AcDbEntity
  8
TILEMAPBELGIUMHEXAGONV2
100
AcDbVertex
100
AcDb2dVertex
 10
132157.0490966485
 20
221248.24643105
 30
0.0
  0
VERTEX
  5
25E
330
A5
100
AcDbEntity
  8
TILEMAPBELGIUMHEXAGONV2
100
AcDbVertex
100
AcDb2dVertex
 10
146590.8058257746
 20
196248.24643105
 30
0.0
  0
VERTEX
  5
25F
330
A5
100
AcDbEntity
  8
TILEMAPBELGIUMHEXAGONV2
100
AcDbVertex
100
AcDb2dVertex
 10
132157.0490966485
 20
171248.24643105
 30
0.0
  0
SEQEND
  5
283
330
A5
100
AcDbEntity
  8
TILEMAPBELGIUMHEXAGONV2
  0
POLYLINE
  5
A6
330
1F4
100
AcDbEntity
  8
TILEMAPBELGIUMHEXAGONV2
100
AcDb2dPolyline
 66
     1
 10
0.0
 20
0.0
 30
0.0
 70
     1
  0
VERTEX
  5
260
330
A6
100
AcDbEntity
  8
TILEMAPBELGIUMHEXAGONV2
100
AcDbVertex
100
AcDb2dVertex
 10
200284.3808608698
 20
171248.24643105
 30
0.0
  0
VERTEX
  5
261
330
A6
100
AcDbEntity
  8
TILEMAPBELGIUMHEXAGONV2
100
AcDbVertex
100
AcDb2dVertex
 10
185850.6241317438
 20
196248.24643105
 30
0.0
  0
VERTEX
  5
262
330
A6
100
AcDbEntity
  8
TILEMAPBELGIUMHEXAGONV2
100
AcDbVertex
100
AcDb2dVertex
 10
200284.3808608698
 20
221248.24643105
 30
0.0
  0
VERTEX
  5
263
330
A6
100
AcDbEntity
  8
TILEMAPBELGIUMHEXAGONV2
100
AcDbVertex
100
AcDb2dVertex
 10
229151.8943229364
 20
221248.24643105
 30
0.0
  0
VERTEX
  5
264
330
A6
100
AcDbEntity
  8
TILEMAPBELGIUMHEXAGONV2
100
AcDbVertex
100
AcDb2dVertex
 10
243585.6510520624
 20
196248.24643105
 30
0.0
  0
VERTEX
  5
265
330
A6
100
AcDbEntity
  8
TILEMAPBELGIUMHEXAGONV2
100
AcDbVertex
100
AcDb2dVertex
 10
229151.8943229364
 20
171248.24643105
 30
0.0
  0
SEQEND
  5
284
330
A6
100
AcDbEntity
  8
TILEMAPBELGIUMHEXAGONV2
  0
POLYLINE
  5
A7
330
1F4
100
AcDbEntity
  8
TILEMAPBELGIUMHEXAGONV2
100
AcDb2dPolyline
 66
     1
 10
0.0
 20
0.0
 30
0.0
 70
     1
  0
VERTEX
  5
266
330
A7
100
AcDbEntity
  8
TILEMAPBELGIUMHEXAGONV2
100
AcDbVertex
100
AcDb2dVertex
 10
151786.9582193711
 20
143248.2464345194
 30
0.0
  0
VERTEX
  5
267
330
A7
100
AcDbEntity
  8
TILEMAPBELGIUMHEXAGONV2
100
AcDbVertex
100
AcDb2dVertex
 10
139122.5646567672
 20
165183.6195329318
 30
0.0
  0
VERTEX
  5
268
330
A7
100
AcDbEntity
  8
TILEMAPBELGIUMHEXAGONV2
100
AcDbVertex
100
AcDb2dVertex
 10
193318.865240227
 20
165183.6195329318
 30
0.0
  0
VERTEX
  5
269
330
A7
100
AcDbEntity
  8
TILEMAPBELGIUMHEXAGONV2
100
AcDbVertex
100
AcDb2dVertex
 10
180654.471677623
 20
143248.2464345194
 30
0.0
  0
SEQEND
  5
285
330
A7
100
AcDbEntity
  8
TILEMAPBELGIUMHEXAGONV2
  0
POLYLINE
  5
A8
330
1F4
100
AcDbEntity
  8
TILEMAPBELGIUMHEXAGONV2
100
AcDb2dPolyline
 66
     1
 10
0.0
 20
0.0
 30
0.0
 70
     1
  0
VERTEX
  5
26A
330
A8
100
AcDbEntity
  8
TILEMAPBELGIUMHEXAGONV2
100
AcDbVertex
100
AcDb2dVertex
 10
139126.1854040194
 20
171319.1446543096
 30
0.0
  0
VERTEX
  5
26B
330
A8
100
AcDbEntity
  8
TILEMAPBELGIUMHEXAGONV2
100
AcDbVertex
100
AcDb2dVertex
 10
151786.9582193711
 20
193248.2464345194
 30
0.0
  0
VERTEX
  5
26C
330
A8
100
AcDbEntity
  8
TILEMAPBELGIUMHEXAGONV2
100
AcDbVertex
100
AcDb2dVertex
 10
180654.471677623
 20
193248.2464345194
 30
0.0
  0
VERTEX
  5
26D
330
A8
100
AcDbEntity
  8
TILEMAPBELGIUMHEXAGONV2
100
AcDbVertex
100
AcDb2dVertex
 10
193315.2444929748
 20
171319.1446543096
 30
0.0
  0
SEQEND
  5
286
330
A8
100
AcDbEntity
  8
TILEMAPBELGIUMHEXAGONV2
  0
POLYLINE
  5
A9
330
1F4
100
AcDbEntity
  8
TILEMAPBELGIUMHEXAGONV2
100
AcDb2dPolyline
 66
     1
 10
0.0
 20
0.0
 30
0.0
 70
     1
  0
VERTEX
  5
26E
330
A9
100
AcDbEntity
  8
TILEMAPBELGIUMHEXAGONV2
100
AcDbVertex
100
AcDb2dVertex
 10
151786.9582193711
 20
199248.2464345194
 30
0.0
  0
VERTEX
  5
26F
330
A9
100
AcDbEntity
  8
TILEMAPBELGIUMHEXAGONV2
100
AcDbVertex
100
AcDb2dVertex
 10
137353.2014902451
 20
224248.2464345194
 30
0.0
  0
VERTEX
  5
270
330
A9
100
AcDbEntity
  8
TILEMAPBELGIUMHEXAGONV2
100
AcDbVertex
100
AcDb2dVertex
 10
151786.9582193711
 20
249248.2464345194
 30
0.0
  0
VERTEX
  5
271
330
A9
100
AcDbEntity
  8
TILEMAPBELGIUMHEXAGONV2
100
AcDbVertex
100
AcDb2dVertex
 10
180654.471677623
 20
249248.2464345194
 30
0.0
  0
VERTEX
  5
272
330
A9
100
AcDbEntity
  8
TILEMAPBELGIUMHEXAGONV2
100
AcDbVertex
100
AcDb2dVertex
 10
195088.2284067491
 20
224248.2464345194
 30
0.0
  0
VERTEX
  5
273
330
A9
100
AcDbEntity
  8
TILEMAPBELGIUMHEXAGONV2
100
AcDbVertex
100
AcDb2dVertex
 10
180654.471677623
 20
199248.2464345194
 30
0.0
  0
SEQEND
  5
287
330
A9
100
AcDbEntity
  8
TILEMAPBELGIUMHEXAGONV2
  0
POLYLINE
  5
AA
330
1F4
100
AcDbEntity
  8
TILEMAPBELGIUMHEXAGONV2
100
AcDb2dPolyline
 66
     1
 10
0.0
 20
0.0
 30
0.0
 70
     1
  0
VERTEX
  5
274
330
AA
100
AcDbEntity
  8
TILEMAPBELGIUMHEXAGONV2
100
AcDbVertex
100
AcDb2dVertex
 10
200368.2873685004
 20
115248.24643105
 30
0.0
  0
VERTEX
  5
275
330
AA
100
AcDbEntity
  8
TILEMAPBELGIUMHEXAGONV2
100
AcDbVertex
100
AcDb2dVertex
 10
185934.5306393744
 20
140248.24643105
 30
0.0
  0
VERTEX
  5
276
330
AA
100
AcDbEntity
  8
TILEMAPBELGIUMHEXAGONV2
100
AcDbVertex
100
AcDb2dVertex
 10
200368.2873685004
 20
165248.24643105
 30
0.0
  0
VERTEX
  5
277
330
AA
100
AcDbEntity
  8
TILEMAPBELGIUMHEXAGONV2
100
AcDbVertex
100
AcDb2dVertex
 10
229235.8008267523
 20
165248.24643105
 30
0.0
  0
VERTEX
  5
278
330
AA
100
AcDbEntity
  8
TILEMAPBELGIUMHEXAGONV2
100
AcDbVertex
100
AcDb2dVertex
 10
243669.5575558784
 20
140248.24643105
 30
0.0
  0
VERTEX
  5
279
330
AA
100
AcDbEntity
  8
TILEMAPBELGIUMHEXAGONV2
100
AcDbVertex
100
AcDb2dVertex
 10
229235.8008267523
 20
115248.24643105
 30
0.0
  0
SEQEND
  5
288
330
AA
100
AcDbEntity
  8
TILEMAPBELGIUMHEXAGONV2
  0
POLYLINE
  5
AB
330
1F4
100
AcDbEntity
  8
TILEMAPBELGIUMHEXAGONV2
100
AcDb2dPolyline
 66
     1
 10
0.0
 20
0.0
 30
0.0
 70
     1
  0
VERTEX
  5
27A
330
AB
100
AcDbEntity
  8
TILEMAPBELGIUMHEXAGONV2
100
AcDbVertex
100
AcDb2dVertex
 10
200452.193876131
 20
59248.2464310496
 30
0.0
  0
VERTEX
  5
27B
330
AB
100
AcDbEntity
  8
TILEMAPBELGIUMHEXAGONV2
100
AcDbVertex
100
AcDb2dVertex
 10
186018.4371470051
 20
84248.2464310496
 30
0.0
  0
VERTEX
  5
27C
330
AB
100
AcDbEntity
  8
TILEMAPBELGIUMHEXAGONV2
100
AcDbVertex
100
AcDb2dVertex
 10
200452.193876131
 20
109248.2464310496
 30
0.0
  0
VERTEX
  5
27D
330
AB
100
AcDbEntity
  8
TILEMAPBELGIUMHEXAGONV2
100
AcDbVertex
100
AcDb2dVertex
 10
229319.707334383
 20
109248.2464310496
 30
0.0
  0
VERTEX
  5
27E
330
AB
100
AcDbEntity
  8
TILEMAPBELGIUMHEXAGONV2
100
AcDbVertex
100
AcDb2dVertex
 10
243753.464063509
 20
84248.2464310496
 30
0.0
  0
VERTEX
  5
27F
330
AB
100
AcDbEntity
  8
TILEMAPBELGIUMHEXAGONV2
100
AcDbVertex
100
AcDb2dVertex
 10
229319.707334383
 20
59248.2464310496
 30
0.0
  0
SEQEND
  5
289
330
AB
100
AcDbEntity
  8
TILEMAPBELGIUMHEXAGONV2
  0
TEXT
  5
141
330
1F4
100
AcDbEntity
  8
0
  6
CONTINUOUS
100
AcDbText
 10
50646.54537955692
 20
167354.8544148477
 30
0.0
 40
2500.0
  1
West-Vlaanderen
100
AcDbText
  0
TEXT
  5
142
330
1F4
100
AcDbEntity
  8
0
  6
CONTINUOUS
100
AcDbText
 10
99560.6346572236
 20
195354.8544148477
 30
0.0
 40
2500.0
  1
Oost-Vlaanderen
100
AcDbText
  0
TEXT
  5
143
330
1F4
100
AcDbEntity
  8
0
  6
CONTINUOUS
100
AcDbText
 10
155349.7239048903
 20
223354.8544188477
 30
0.0
 40
2500.0
  1
Antwerpen
100
AcDbText
  0
TEXT
  5
144
330
1F4
100
AcDbEntity
  8
0
  6
CONTINUOUS
100
AcDbText
 10
110185.6346572236
 20
139354.8544148477
 30
0.0
 40
2500.0
  1
Hainaut
100
AcDbText
  0
TEXT
  5
145
330
1F4
100
AcDbEntity
  8
0
  6
CONTINUOUS
100
AcDbText
 10
160349.7239358903
 20
111354.8544148477
 30
0.0
 40
2500.0
  1
Namur
100
AcDbText
  0
TEXT
  5
146
330
1F4
100
AcDbEntity
  8
0
  6
CONTINUOUS
100
AcDbText
 10
209764.3863872236
 20
139354.8544148477
 30
0.0
 40
2500.0
  1
Liège
100
AcDbText
  0
TEXT
  5
147
330
1F4
100
AcDbEntity
  8
0
  6
CONTINUOUS
100
AcDbText
 10
207180.4798802236
 20
195354.8544148477
 30
0.0
 40
2500.0
  1
Limburg
100
AcDbText
  0
TEXT
  5
148
330
1F4
100
AcDbEntity
  8
0
  6
CONTINUOUS
100
AcDbText
 10
202764.9369708902
 20
83355.12532884773
 30
0.0
 40
2500.0
  1
Luxembourg
100
AcDbText
  0
TEXT
  5
16F
330
1F4
100
AcDbEntity
  8
0
  6
CONTINUOUS
100
AcDbText
 10
149345.7149484971
 20
179783.6955444145
 30
0.0
 40
2500.0
  1
Vlaams-Brabant
100
AcDbText
  0
TEXT
  5
196
330
1F4
100
AcDbEntity
  8
0
  6
CONTINUOUS
100
AcDbText
 10
151472.9831229607
 20
153532.5891211023
 30
0.0
 40
2500.0
  1
Brabant wallon
100
AcDbText
  0
ENDSEC
  0
SECTION
  2
OBJECTS
  0
DICTIONARY
  5
1E4
330
0
100
AcDbDictionary
  3
ACAD_GROUP
350
1E5
  3
ACAD_IMAGE_VARS
350
246
  3
ACAD_MLINESTYLE
350
1EE
  3
ACAD_SCALELIST
350
205
  3
APPDATA
350
244
  3
DWGPROPS
350
247
1001
ACAD
1000
TREAT_AS_HARD
1070
     0
  0
DICTIONARY
  5
1E5
102
{ACAD_REACTORS
330
1E4
102
}
330
1E4
100
AcDbDictionary
1001
ACAD
1000
TREAT_AS_HARD
1070
     0
  0
RASTERVARIABLES
  5
246
102
{ACAD_REACTORS
330
1E4
102
}
330
1E4
100
AcDbRasterVariables
 90
        0
 70
     1
 71
     1
 72
     0
  0
DICTIONARY
  5
1EE
102
{ACAD_REACTORS
330
1E4
102
}
330
1E4
100
AcDbDictionary
  3
STANDARD
350
1EF
1001
ACAD
1000
TREAT_AS_HARD
1070
     0
  0
DICTIONARY
  5
205
102
{ACAD_REACTORS
330
1E4
102
}
330
1E4
100
AcDbDictionary
1001
ACAD
1000
TREAT_AS_HARD
1070
     0
  0
DICTIONARY
  5
244
102
{ACAD_REACTORS
330
1E4
102
}
330
1E4
100
AcDbDictionary
1001
ACAD
1000
TREAT_AS_HARD
1070
     0
  0
XRECORD
  5
247
102
{ACAD_REACTORS
330
1E4
102
}
330
1E4
100
AcDbXrecord
  1
DWGPROPS COOKIE
  2

  3

  4

  6

  7

  8
michstuy
  9

300
=
301
=
302
=
303
=
304
=
305
=
306
=
307
=
308
=
309
=
 40
0.0
 41
2457773.471399884
 42
2457773.521692812
  1

 90
        0
  0
MLINESTYLE
  5
1EF
102
{ACAD_REACTORS
330
1EE
102
}
330
1EE
100
AcDbMlineStyle
  2
Standard
 70
     0
  3

 62
   256
 51
90.0
 52
90.0
 71
     2
 49
0.5
 62
   256
  6
BYLAYER
 49
-0.5
 62
   256
  6
BYLAYER
  0
ENDSEC
  0
EOF
