  0
SECTION
  2
HEADER
  9
$ACADVER
  1
AC1009
  9
$DWGCODEPAGE
  3
ansi_1252
  9
$INSBASE
 10
0.0
 20
0.0
 30
0.0
  9
$EXTMIN
 10
40358.356298
 20
59248.517345
 30
0.0
  9
$EXTMAX
 10
292418.677107
 20
249248.246435
 30
0.0
  9
$LIMMIN
 10
0.0
 20
0.0
  9
$LIMMAX
 10
12.0
 20
9.0
  9
$ORTHOMODE
 70
     0
  9
$REGENMODE
 70
     1
  9
$FILLMODE
 70
     1
  9
$QTEXTMODE
 70
     0
  9
$MIRRTEXT
 70
     1
  9
$DRAGMODE
 70
     2
  9
$LTSCALE
 40
1.0
  9
$OSMODE
 70
   511
  9
$ATTMODE
 70
     1
  9
$TEXTSIZE
 40
0.2
  9
$TRACEWID
 40
0.05
  9
$TEXTSTYLE
  7
STANDARD
  9
$CLAYER
  8
0
  9
$CELTYPE
  6
BYLAYER
  9
$CECOLOR
 62
   256
  9
$DIMSCALE
 40
1.0
  9
$DIMASZ
 40
0.18
  9
$DIMEXO
 40
0.0625
  9
$DIMDLI
 40
0.38
  9
$DIMRND
 40
0.0
  9
$DIMDLE
 40
0.0
  9
$DIMEXE
 40
0.18
  9
$DIMTP
 40
0.0
  9
$DIMTM
 40
0.0
  9
$DIMTXT
 40
0.18
  9
$DIMCEN
 40
0.09
  9
$DIMTSZ
 40
0.0
  9
$DIMTOL
 70
     0
  9
$DIMLIM
 70
     0
  9
$DIMTIH
 70
     1
  9
$DIMTOH
 70
     1
  9
$DIMSE1
 70
     0
  9
$DIMSE2
 70
     0
  9
$DIMTAD
 70
     0
  9
$DIMZIN
 70
     0
  9
$DIMBLK
  1

  9
$DIMASO
 70
     1
  9
$DIMSHO
 70
     1
  9
$DIMPOST
  1

  9
$DIMAPOST
  1

  9
$DIMALT
 70
     0
  9
$DIMALTD
 70
     2
  9
$DIMALTF
 40
25.4
  9
$DIMLFAC
 40
1.0
  9
$DIMTOFL
 70
     0
  9
$DIMTVP
 40
0.0
  9
$DIMTIX
 70
     0
  9
$DIMSOXD
 70
     0
  9
$DIMSAH
 70
     0
  9
$DIMBLK1
  1

  9
$DIMBLK2
  1

  9
$DIMSTYLE
  2
STANDARD
  9
$DIMCLRD
 70
     0
  9
$DIMCLRE
 70
     0
  9
$DIMCLRT
 70
     0
  9
$DIMTFAC
 40
1.0
  9
$DIMGAP
 40
0.09
  9
$LUNITS
 70
     2
  9
$LUPREC
 70
     4
  9
$SKETCHINC
 40
0.1
  9
$FILLETRAD
 40
0.5
  9
$AUNITS
 70
     0
  9
$AUPREC
 70
     0
  9
$MENU
  1
.
  9
$ELEVATION
 40
0.0
  9
$PELEVATION
 40
0.0
  9
$THICKNESS
 40
0.0
  9
$LIMCHECK
 70
     0
  9
$CHAMFERA
 40
0.0
  9
$CHAMFERB
 40
0.0
  9
$SKPOLY
 70
     0
  9
$TDCREATE
 40
2457773.50809162
  9
$TDUPDATE
 40
2457773.523111574
  9
$TDINDWG
 40
0.001815625
  9
$TDUSRTIMER
 40
2457773.479629375
  9
$USRTIMER
 70
     1
  9
$ANGBASE
 50
0.0
  9
$ANGDIR
 70
     0
  9
$PDMODE
 70
     0
  9
$PDSIZE
 40
0.0
  9
$PLINEWID
 40
0.0
  9
$COORDS
 70
     1
  9
$SPLFRAME
 70
     0
  9
$SPLINETYPE
 70
     6
  9
$SPLINESEGS
 70
     8
  9
$ATTDIA
 70
     0
  9
$ATTREQ
 70
     1
  9
$HANDLING
 70
     1
  9
$HANDSEED
  5
32A
  9
$SURFTAB1
 70
     6
  9
$SURFTAB2
 70
     6
  9
$SURFTYPE
 70
     6
  9
$SURFU
 70
     6
  9
$SURFV
 70
     6
  9
$UCSNAME
  2

  9
$UCSORG
 10
0.0
 20
0.0
 30
0.0
  9
$UCSXDIR
 10
1.0
 20
0.0
 30
0.0
  9
$UCSYDIR
 10
0.0
 20
1.0
 30
0.0
  9
$PUCSNAME
  2

  9
$PUCSORG
 10
0.0
 20
0.0
 30
0.0
  9
$PUCSXDIR
 10
1.0
 20
0.0
 30
0.0
  9
$PUCSYDIR
 10
0.0
 20
1.0
 30
0.0
  9
$USERI1
 70
     0
  9
$USERI2
 70
     0
  9
$USERI3
 70
     0
  9
$USERI4
 70
     0
  9
$USERI5
 70
     0
  9
$USERR1
 40
0.0
  9
$USERR2
 40
0.0
  9
$USERR3
 40
0.0
  9
$USERR4
 40
0.0
  9
$USERR5
 40
0.0
  9
$WORLDVIEW
 70
     1
  9
$SHADEDGE
 70
     3
  9
$SHADEDIF
 70
    70
  9
$TILEMODE
 70
     1
  9
$MAXACTVP
 70
    64
  9
$PLIMCHECK
 70
     0
  9
$PEXTMIN
 10
1.000000000000000E+20
 20
1.000000000000000E+20
 30
1.000000000000000E+20
  9
$PEXTMAX
 10
-1.000000000000000E+20
 20
-1.000000000000000E+20
 30
-1.000000000000000E+20
  9
$PLIMMIN
 10
0.0
 20
0.0
  9
$PLIMMAX
 10
0.0
 20
0.0
  9
$UNITMODE
 70
     0
  9
$VISRETAIN
 70
     1
  9
$PLINEGEN
 70
     0
  9
$PSLTSCALE
 70
     0
  0
ENDSEC
  0
SECTION
  2
TABLES
  0
TABLE
  2
VPORT
 70
     1
  0
VPORT
  2
*ACTIVE
 70
     0
 10
0.0
 20
0.0
 11
1.0
 21
1.0
 12
166388.5167025
 22
154248.38189
 13
0.0
 23
0.0
 14
0.5
 24
0.5
 15
0.5
 25
0.5
 16
0.0
 26
0.0
 36
1.0
 17
0.0
 27
0.0
 37
0.0
 40
193799.7236718
 41
1.96602658788774
 42
50.0
 43
0.0
 44
0.0
 50
0.0
 51
0.0
 71
    16
 72
   100
 73
     1
 74
     3
 75
     0
 76
     0
 77
     0
 78
     0
  0
ENDTAB
  0
TABLE
  2
LTYPE
 70
     1
  0
LTYPE
  2
CONTINUOUS
 70
     0
  3
Solid line
 72
    65
 73
     0
 40
0.0
  0
ENDTAB
  0
TABLE
  2
LAYER
 70
     2
  0
LAYER
  2
0
 70
     0
 62
     7
  6
CONTINUOUS
  0
LAYER
  2
TILEMAPBELGIUMHEXAGONV1
 70
     0
 62
     7
  6
CONTINUOUS
  0
ENDTAB
  0
TABLE
  2
STYLE
 70
     1
  0
STYLE
  2
STANDARD
 70
     0
 40
0.0
 41
1.0
 50
0.0
 71
     0
 42
0.2
  3
txt
  4

  0
ENDTAB
  0
TABLE
  2
VIEW
 70
     0
  0
ENDTAB
  0
TABLE
  2
UCS
 70
     0
  0
ENDTAB
  0
TABLE
  2
APPID
 70
     7
  0
APPID
  2
ACAD
 70
     0
  0
APPID
  2
ACAD_MLEADERVER
 70
     0
  0
APPID
  2
MCS_DIM1
 70
     0
  0
APPID
  2
MCSXDATA5
 70
     0
  0
APPID
  2
MCS_DOCUMENT_ID
 70
     0
  0
APPID
  2
MCS_PARAMS_DATA
 70
     0
  0
APPID
  2
MC_VERSION_DATA
 70
     0
  0
ENDTAB
  0
TABLE
  2
DIMSTYLE
 70
     1
  0
DIMSTYLE
  2
STANDARD
 70
     0
  3

  4

  5

  6

  7

 40
1.0
 41
0.18
 42
0.0625
 43
0.38
 44
0.18
 45
0.0
 46
0.0
 47
0.0
 48
0.0
140
0.18
141
0.09
142
0.0
143
25.4
144
1.0
145
0.0
146
1.0
147
0.09
 71
     0
 72
     0
 73
     1
 74
     1
 75
     0
 76
     0
 77
     0
 78
     0
170
     0
171
     2
172
     0
173
     0
174
     0
175
     0
176
     0
177
     0
178
     0
  0
ENDTAB
  0
ENDSEC
  0
SECTION
  2
BLOCKS
  0
BLOCK
  8
0
  2
$MODEL_SPACE
 70
     0
 10
0.0
 20
0.0
 30
0.0
  3
$MODEL_SPACE
  1

  0
ENDBLK
  5
21
  8
0
  0
BLOCK
 67
     1
  8
0
  2
$PAPER_SPACE
 70
     0
 10
0.0
 20
0.0
 30
0.0
  3
$PAPER_SPACE
  1

  0
ENDBLK
  5
1D
 67
     1
  8
0
  0
ENDSEC
  0
SECTION
  2
ENTITIES
  0
POLYLINE
  5
A2
  8
TILEMAPBELGIUMHEXAGONV1
 66
     1
 10
0.0
 20
0.0
 30
0.0
 70
     1
  0
VERTEX
  5
2E4
  8
TILEMAPBELGIUMHEXAGONV1
 10
200452.171285
 20
59248.517345
 30
0.0
  0
VERTEX
  5
2E5
  8
TILEMAPBELGIUMHEXAGONV1
 10
186018.414556
 20
84248.517345
 30
0.0
  0
VERTEX
  5
2E6
  8
TILEMAPBELGIUMHEXAGONV1
 10
200452.171285
 20
109248.517345
 30
0.0
  0
VERTEX
  5
2E7
  8
TILEMAPBELGIUMHEXAGONV1
 10
229319.684747
 20
109248.517345
 30
0.0
  0
VERTEX
  5
2E8
  8
TILEMAPBELGIUMHEXAGONV1
 10
243753.441476
 20
84248.517345
 30
0.0
  0
VERTEX
  5
2E9
  8
TILEMAPBELGIUMHEXAGONV1
 10
229319.684747
 20
59248.517345
 30
0.0
  0
SEQEND
  5
320
  8
TILEMAPBELGIUMHEXAGONV1
  0
POLYLINE
  5
A3
  8
TILEMAPBELGIUMHEXAGONV1
 66
     1
 10
0.0
 20
0.0
 30
0.0
 70
     1
  0
VERTEX
  5
2EA
  8
TILEMAPBELGIUMHEXAGONV1
 10
151786.95825
 20
87248.246431
 30
0.0
  0
VERTEX
  5
2EB
  8
TILEMAPBELGIUMHEXAGONV1
 10
137353.201521
 20
112248.246431
 30
0.0
  0
VERTEX
  5
2EC
  8
TILEMAPBELGIUMHEXAGONV1
 10
151786.95825
 20
137248.246431
 30
0.0
  0
VERTEX
  5
2ED
  8
TILEMAPBELGIUMHEXAGONV1
 10
180654.471708
 20
137248.246431
 30
0.0
  0
VERTEX
  5
2EE
  8
TILEMAPBELGIUMHEXAGONV1
 10
195088.228441
 20
112248.246431
 30
0.0
  0
VERTEX
  5
2EF
  8
TILEMAPBELGIUMHEXAGONV1
 10
180654.471708
 20
87248.246431
 30
0.0
  0
SEQEND
  5
321
  8
TILEMAPBELGIUMHEXAGONV1
  0
POLYLINE
  5
A4
  8
TILEMAPBELGIUMHEXAGONV1
 66
     1
 10
0.0
 20
0.0
 30
0.0
 70
     1
  0
VERTEX
  5
2F0
  8
TILEMAPBELGIUMHEXAGONV1
 10
103289.535638
 20
115248.246431
 30
0.0
  0
VERTEX
  5
2F1
  8
TILEMAPBELGIUMHEXAGONV1
 10
88855.778909
 20
140248.246431
 30
0.0
  0
VERTEX
  5
2F2
  8
TILEMAPBELGIUMHEXAGONV1
 10
103289.535638
 20
165248.246431
 30
0.0
  0
VERTEX
  5
2F3
  8
TILEMAPBELGIUMHEXAGONV1
 10
132157.049097
 20
165248.246431
 30
0.0
  0
VERTEX
  5
2F4
  8
TILEMAPBELGIUMHEXAGONV1
 10
146590.805826
 20
140248.246431
 30
0.0
  0
VERTEX
  5
2F5
  8
TILEMAPBELGIUMHEXAGONV1
 10
132157.049097
 20
115248.246431
 30
0.0
  0
SEQEND
  5
322
  8
TILEMAPBELGIUMHEXAGONV1
  0
POLYLINE
  5
A5
  8
TILEMAPBELGIUMHEXAGONV1
 66
     1
 10
0.0
 20
0.0
 30
0.0
 70
     1
  0
VERTEX
  5
2F6
  8
TILEMAPBELGIUMHEXAGONV1
 10
54792.113027
 20
143248.246431
 30
0.0
  0
VERTEX
  5
2F7
  8
TILEMAPBELGIUMHEXAGONV1
 10
40358.356298
 20
168248.246431
 30
0.0
  0
VERTEX
  5
2F8
  8
TILEMAPBELGIUMHEXAGONV1
 10
54792.113027
 20
193248.246431
 30
0.0
  0
VERTEX
  5
2F9
  8
TILEMAPBELGIUMHEXAGONV1
 10
83659.626485
 20
193248.246431
 30
0.0
  0
VERTEX
  5
2FA
  8
TILEMAPBELGIUMHEXAGONV1
 10
98093.383215
 20
168248.246431
 30
0.0
  0
VERTEX
  5
2FB
  8
TILEMAPBELGIUMHEXAGONV1
 10
83659.626485
 20
143248.246431
 30
0.0
  0
SEQEND
  5
323
  8
TILEMAPBELGIUMHEXAGONV1
  0
POLYLINE
  5
A6
  8
TILEMAPBELGIUMHEXAGONV1
 66
     1
 10
0.0
 20
0.0
 30
0.0
 70
     1
  0
VERTEX
  5
2FC
  8
TILEMAPBELGIUMHEXAGONV1
 10
103289.535638
 20
171248.246431
 30
0.0
  0
VERTEX
  5
2FD
  8
TILEMAPBELGIUMHEXAGONV1
 10
88855.778909
 20
196248.246431
 30
0.0
  0
VERTEX
  5
2FE
  8
TILEMAPBELGIUMHEXAGONV1
 10
103289.535638
 20
221248.246431
 30
0.0
  0
VERTEX
  5
2FF
  8
TILEMAPBELGIUMHEXAGONV1
 10
132157.049097
 20
221248.246431
 30
0.0
  0
VERTEX
  5
300
  8
TILEMAPBELGIUMHEXAGONV1
 10
146590.805826
 20
196248.246431
 30
0.0
  0
VERTEX
  5
301
  8
TILEMAPBELGIUMHEXAGONV1
 10
132157.049097
 20
171248.246431
 30
0.0
  0
SEQEND
  5
324
  8
TILEMAPBELGIUMHEXAGONV1
  0
POLYLINE
  5
A7
  8
TILEMAPBELGIUMHEXAGONV1
 66
     1
 10
0.0
 20
0.0
 30
0.0
 70
     1
  0
VERTEX
  5
302
  8
TILEMAPBELGIUMHEXAGONV1
 10
200284.380861
 20
171248.246431
 30
0.0
  0
VERTEX
  5
303
  8
TILEMAPBELGIUMHEXAGONV1
 10
185850.624132
 20
196248.246431
 30
0.0
  0
VERTEX
  5
304
  8
TILEMAPBELGIUMHEXAGONV1
 10
200284.380861
 20
221248.246431
 30
0.0
  0
VERTEX
  5
305
  8
TILEMAPBELGIUMHEXAGONV1
 10
229151.894323
 20
221248.246431
 30
0.0
  0
VERTEX
  5
306
  8
TILEMAPBELGIUMHEXAGONV1
 10
243585.651052
 20
196248.246431
 30
0.0
  0
VERTEX
  5
307
  8
TILEMAPBELGIUMHEXAGONV1
 10
229151.894323
 20
171248.246431
 30
0.0
  0
SEQEND
  5
325
  8
TILEMAPBELGIUMHEXAGONV1
  0
POLYLINE
  5
A8
  8
TILEMAPBELGIUMHEXAGONV1
 66
     1
 10
0.0
 20
0.0
 30
0.0
 70
     1
  0
VERTEX
  5
308
  8
TILEMAPBELGIUMHEXAGONV1
 10
151786.958219
 20
143248.246435
 30
0.0
  0
VERTEX
  5
309
  8
TILEMAPBELGIUMHEXAGONV1
 10
137353.20149
 20
168248.246435
 30
0.0
  0
VERTEX
  5
30A
  8
TILEMAPBELGIUMHEXAGONV1
 10
151786.958219
 20
193248.246435
 30
0.0
  0
VERTEX
  5
30B
  8
TILEMAPBELGIUMHEXAGONV1
 10
180654.471678
 20
193248.246435
 30
0.0
  0
VERTEX
  5
30C
  8
TILEMAPBELGIUMHEXAGONV1
 10
195088.228407
 20
168248.246435
 30
0.0
  0
VERTEX
  5
30D
  8
TILEMAPBELGIUMHEXAGONV1
 10
180654.471678
 20
143248.246435
 30
0.0
  0
SEQEND
  5
326
  8
TILEMAPBELGIUMHEXAGONV1
  0
POLYLINE
  5
A9
  8
TILEMAPBELGIUMHEXAGONV1
 66
     1
 10
0.0
 20
0.0
 30
0.0
 70
     1
  0
VERTEX
  5
30E
  8
TILEMAPBELGIUMHEXAGONV1
 10
151786.958219
 20
199248.246435
 30
0.0
  0
VERTEX
  5
30F
  8
TILEMAPBELGIUMHEXAGONV1
 10
137353.20149
 20
224248.246435
 30
0.0
  0
VERTEX
  5
310
  8
TILEMAPBELGIUMHEXAGONV1
 10
151786.958219
 20
249248.246435
 30
0.0
  0
VERTEX
  5
311
  8
TILEMAPBELGIUMHEXAGONV1
 10
180654.471678
 20
249248.246435
 30
0.0
  0
VERTEX
  5
312
  8
TILEMAPBELGIUMHEXAGONV1
 10
195088.228407
 20
224248.246435
 30
0.0
  0
VERTEX
  5
313
  8
TILEMAPBELGIUMHEXAGONV1
 10
180654.471678
 20
199248.246435
 30
0.0
  0
SEQEND
  5
327
  8
TILEMAPBELGIUMHEXAGONV1
  0
POLYLINE
  5
AA
  8
TILEMAPBELGIUMHEXAGONV1
 66
     1
 10
0.0
 20
0.0
 30
0.0
 70
     1
  0
VERTEX
  5
314
  8
TILEMAPBELGIUMHEXAGONV1
 10
200368.287369
 20
115248.246431
 30
0.0
  0
VERTEX
  5
315
  8
TILEMAPBELGIUMHEXAGONV1
 10
185934.530639
 20
140248.246431
 30
0.0
  0
VERTEX
  5
316
  8
TILEMAPBELGIUMHEXAGONV1
 10
200368.287369
 20
165248.246431
 30
0.0
  0
VERTEX
  5
317
  8
TILEMAPBELGIUMHEXAGONV1
 10
229235.800827
 20
165248.246431
 30
0.0
  0
VERTEX
  5
318
  8
TILEMAPBELGIUMHEXAGONV1
 10
243669.557556
 20
140248.246431
 30
0.0
  0
VERTEX
  5
319
  8
TILEMAPBELGIUMHEXAGONV1
 10
229235.800827
 20
115248.246431
 30
0.0
  0
SEQEND
  5
328
  8
TILEMAPBELGIUMHEXAGONV1
  0
POLYLINE
  5
AB
  8
TILEMAPBELGIUMHEXAGONV1
 66
     1
 10
0.0
 20
0.0
 30
0.0
 70
     1
  0
VERTEX
  5
31A
  8
TILEMAPBELGIUMHEXAGONV1
 10
249117.406919
 20
87248.517348
 30
0.0
  0
VERTEX
  5
31B
  8
TILEMAPBELGIUMHEXAGONV1
 10
234683.65019
 20
112248.517348
 30
0.0
  0
VERTEX
  5
31C
  8
TILEMAPBELGIUMHEXAGONV1
 10
249117.406919
 20
137248.517348
 30
0.0
  0
VERTEX
  5
31D
  8
TILEMAPBELGIUMHEXAGONV1
 10
277984.920378
 20
137248.517348
 30
0.0
  0
VERTEX
  5
31E
  8
TILEMAPBELGIUMHEXAGONV1
 10
292418.677107
 20
112248.517348
 30
0.0
  0
VERTEX
  5
31F
  8
TILEMAPBELGIUMHEXAGONV1
 10
277984.920378
 20
87248.517348
 30
0.0
  0
SEQEND
  5
329
  8
TILEMAPBELGIUMHEXAGONV1
  0
TEXT
  5
E5
  8
0
  6
CONTINUOUS
 10
50646.54537952287
 20
167354.8544147977
 30
0.0
 40
2500.0
  1
West-Vlaanderen
  0
TEXT
  5
172
  8
0
  6
CONTINUOUS
 10
99560.63465718956
 20
195354.8544147977
 30
0.0
 40
2500.0
  1
Oost-Vlaanderen
  0
TEXT
  5
19B
  8
0
  6
CONTINUOUS
 10
155349.7239048562
 20
223354.8544187977
 30
0.0
 40
2500.0
  1
Antwerpen
  0
TEXT
  5
1C4
  8
0
  6
CONTINUOUS
 10
207180.4798801895
 20
195354.8544147977
 30
0.0
 40
2500.0
  1
Limburg
  0
TEXT
  5
1ED
  8
0
  6
CONTINUOUS
 10
149308.0572381896
 20
167354.8544187977
 30
0.0
 40
2500.0
  1
Vlaams-Brabant
  0
TEXT
  5
216
  8
0
  6
CONTINUOUS
 10
110185.6346571896
 20
139354.8544147977
 30
0.0
 40
2500.0
  1
Hainaut
  0
TEXT
  5
23F
  8
0
  6
CONTINUOUS
 10
209764.3863871896
 20
139354.8544147977
 30
0.0
 40
2500.0
  1
Liège
  0
TEXT
  5
268
  8
0
  6
CONTINUOUS
 10
150349.7239358562
 20
111354.8544147977
 30
0.0
 40
2500.0
  1
Brabant wallon
  0
TEXT
  5
2BA
  8
0
  6
CONTINUOUS
 10
209014.9369708562
 20
83355.12532879773
 30
0.0
 40
2500.0
  1
Namur
  0
TEXT
  5
2E3
  8
0
  6
CONTINUOUS
 10
251430.1726048562
 20
111355.1253317977
 30
0.0
 40
2500.0
  1
Luxembourg
  0
ENDSEC
  0
EOF
